<?xml version="1.0" encoding="utf-8" standalone="no"?>
<!DOCTYPE svg PUBLIC "-//W3C//DTD SVG 1.1//EN"
  "http://www.w3.org/Graphics/SVG/1.1/DTD/svg11.dtd">
<svg xmlns:xlink="http://www.w3.org/1999/xlink" width="1008pt" height="576pt" viewBox="0 0 1008 576" xmlns="http://www.w3.org/2000/svg" version="1.1">
 <metadata>
  <rdf:RDF xmlns:dc="http://purl.org/dc/elements/1.1/" xmlns:cc="http://creativecommons.org/ns#" xmlns:rdf="http://www.w3.org/1999/02/22-rdf-syntax-ns#">
   <cc:Work>
    <dc:type rdf:resource="http://purl.org/dc/dcmitype/StillImage"/>
    <dc:date>2024-05-18T14:58:48.847183</dc:date>
    <dc:format>image/svg+xml</dc:format>
    <dc:creator>
     <cc:Agent>
      <dc:title>Matplotlib v3.8.4, https://matplotlib.org/</dc:title>
     </cc:Agent>
    </dc:creator>
   </cc:Work>
  </rdf:RDF>
 </metadata>
 <defs>
  <style type="text/css">*{stroke-linejoin: round; stroke-linecap: butt}</style>
 </defs>
 <g id="figure_1">
  <g id="patch_1">
   <path d="M 0 576 
L 1008 576 
L 1008 0 
L 0 0 
z
" style="fill: #f0f0f0"/>
  </g>
  <g id="axes_1">
   <g id="patch_2">
    <path d="M 80.64 535.68 
L 957.6 535.68 
L 957.6 69.12 
L 80.64 69.12 
z
" style="fill: #f0f0f0"/>
   </g>
   <g id="matplotlib.axis_1">
    <g id="xtick_1">
     <g id="line2d_1">
      <path d="M 251.811337 535.68 
L 251.811337 69.12 
" clip-path="url(#pdc00ec5d1c)" style="fill: none; stroke: #cbcbcb"/>
     </g>
     <g id="line2d_2"/>
     <g id="text_1">
      <!-- 20 -->
      <g transform="translate(242.903837 549.817813) scale(0.14 -0.14)">
       <defs>
        <path id="DejaVuSans-32" d="M 1228 531 
L 3431 531 
L 3431 0 
L 469 0 
L 469 531 
Q 828 903 1448 1529 
Q 2069 2156 2228 2338 
Q 2531 2678 2651 2914 
Q 2772 3150 2772 3378 
Q 2772 3750 2511 3984 
Q 2250 4219 1831 4219 
Q 1534 4219 1204 4116 
Q 875 4013 500 3803 
L 500 4441 
Q 881 4594 1212 4672 
Q 1544 4750 1819 4750 
Q 2544 4750 2975 4387 
Q 3406 4025 3406 3419 
Q 3406 3131 3298 2873 
Q 3191 2616 2906 2266 
Q 2828 2175 2409 1742 
Q 1991 1309 1228 531 
z
" transform="scale(0.015625)"/>
        <path id="DejaVuSans-30" d="M 2034 4250 
Q 1547 4250 1301 3770 
Q 1056 3291 1056 2328 
Q 1056 1369 1301 889 
Q 1547 409 2034 409 
Q 2525 409 2770 889 
Q 3016 1369 3016 2328 
Q 3016 3291 2770 3770 
Q 2525 4250 2034 4250 
z
M 2034 4750 
Q 2819 4750 3233 4129 
Q 3647 3509 3647 2328 
Q 3647 1150 3233 529 
Q 2819 -91 2034 -91 
Q 1250 -91 836 529 
Q 422 1150 422 2328 
Q 422 3509 836 4129 
Q 1250 4750 2034 4750 
z
" transform="scale(0.015625)"/>
       </defs>
       <use xlink:href="#DejaVuSans-32"/>
       <use xlink:href="#DejaVuSans-30" x="63.623047"/>
      </g>
     </g>
    </g>
    <g id="xtick_2">
     <g id="line2d_3">
      <path d="M 439.396364 535.68 
L 439.396364 69.12 
" clip-path="url(#pdc00ec5d1c)" style="fill: none; stroke: #cbcbcb"/>
     </g>
     <g id="line2d_4"/>
     <g id="text_2">
      <!-- 40 -->
      <g transform="translate(430.488864 549.817813) scale(0.14 -0.14)">
       <defs>
        <path id="DejaVuSans-34" d="M 2419 4116 
L 825 1625 
L 2419 1625 
L 2419 4116 
z
M 2253 4666 
L 3047 4666 
L 3047 1625 
L 3713 1625 
L 3713 1100 
L 3047 1100 
L 3047 0 
L 2419 0 
L 2419 1100 
L 313 1100 
L 313 1709 
L 2253 4666 
z
" transform="scale(0.015625)"/>
       </defs>
       <use xlink:href="#DejaVuSans-34"/>
       <use xlink:href="#DejaVuSans-30" x="63.623047"/>
      </g>
     </g>
    </g>
    <g id="xtick_3">
     <g id="line2d_5">
      <path d="M 626.98139 535.68 
L 626.98139 69.12 
" clip-path="url(#pdc00ec5d1c)" style="fill: none; stroke: #cbcbcb"/>
     </g>
     <g id="line2d_6"/>
     <g id="text_3">
      <!-- 60 -->
      <g transform="translate(618.07389 549.817813) scale(0.14 -0.14)">
       <defs>
        <path id="DejaVuSans-36" d="M 2113 2584 
Q 1688 2584 1439 2293 
Q 1191 2003 1191 1497 
Q 1191 994 1439 701 
Q 1688 409 2113 409 
Q 2538 409 2786 701 
Q 3034 994 3034 1497 
Q 3034 2003 2786 2293 
Q 2538 2584 2113 2584 
z
M 3366 4563 
L 3366 3988 
Q 3128 4100 2886 4159 
Q 2644 4219 2406 4219 
Q 1781 4219 1451 3797 
Q 1122 3375 1075 2522 
Q 1259 2794 1537 2939 
Q 1816 3084 2150 3084 
Q 2853 3084 3261 2657 
Q 3669 2231 3669 1497 
Q 3669 778 3244 343 
Q 2819 -91 2113 -91 
Q 1303 -91 875 529 
Q 447 1150 447 2328 
Q 447 3434 972 4092 
Q 1497 4750 2381 4750 
Q 2619 4750 2861 4703 
Q 3103 4656 3366 4563 
z
" transform="scale(0.015625)"/>
       </defs>
       <use xlink:href="#DejaVuSans-36"/>
       <use xlink:href="#DejaVuSans-30" x="63.623047"/>
      </g>
     </g>
    </g>
    <g id="xtick_4">
     <g id="line2d_7">
      <path d="M 814.566417 535.68 
L 814.566417 69.12 
" clip-path="url(#pdc00ec5d1c)" style="fill: none; stroke: #cbcbcb"/>
     </g>
     <g id="line2d_8"/>
     <g id="text_4">
      <!-- 80 -->
      <g transform="translate(805.658917 549.817813) scale(0.14 -0.14)">
       <defs>
        <path id="DejaVuSans-38" d="M 2034 2216 
Q 1584 2216 1326 1975 
Q 1069 1734 1069 1313 
Q 1069 891 1326 650 
Q 1584 409 2034 409 
Q 2484 409 2743 651 
Q 3003 894 3003 1313 
Q 3003 1734 2745 1975 
Q 2488 2216 2034 2216 
z
M 1403 2484 
Q 997 2584 770 2862 
Q 544 3141 544 3541 
Q 544 4100 942 4425 
Q 1341 4750 2034 4750 
Q 2731 4750 3128 4425 
Q 3525 4100 3525 3541 
Q 3525 3141 3298 2862 
Q 3072 2584 2669 2484 
Q 3125 2378 3379 2068 
Q 3634 1759 3634 1313 
Q 3634 634 3220 271 
Q 2806 -91 2034 -91 
Q 1263 -91 848 271 
Q 434 634 434 1313 
Q 434 1759 690 2068 
Q 947 2378 1403 2484 
z
M 1172 3481 
Q 1172 3119 1398 2916 
Q 1625 2713 2034 2713 
Q 2441 2713 2670 2916 
Q 2900 3119 2900 3481 
Q 2900 3844 2670 4047 
Q 2441 4250 2034 4250 
Q 1625 4250 1398 4047 
Q 1172 3844 1172 3481 
z
" transform="scale(0.015625)"/>
       </defs>
       <use xlink:href="#DejaVuSans-38"/>
       <use xlink:href="#DejaVuSans-30" x="63.623047"/>
      </g>
     </g>
    </g>
    <g id="text_5">
     <!-- age -->
     <g transform="translate(503.471063 569.49475) scale(0.168 -0.168)">
      <defs>
       <path id="DejaVuSans-61" d="M 2194 1759 
Q 1497 1759 1228 1600 
Q 959 1441 959 1056 
Q 959 750 1161 570 
Q 1363 391 1709 391 
Q 2188 391 2477 730 
Q 2766 1069 2766 1631 
L 2766 1759 
L 2194 1759 
z
M 3341 1997 
L 3341 0 
L 2766 0 
L 2766 531 
Q 2569 213 2275 61 
Q 1981 -91 1556 -91 
Q 1019 -91 701 211 
Q 384 513 384 1019 
Q 384 1609 779 1909 
Q 1175 2209 1959 2209 
L 2766 2209 
L 2766 2266 
Q 2766 2663 2505 2880 
Q 2244 3097 1772 3097 
Q 1472 3097 1187 3025 
Q 903 2953 641 2809 
L 641 3341 
Q 956 3463 1253 3523 
Q 1550 3584 1831 3584 
Q 2591 3584 2966 3190 
Q 3341 2797 3341 1997 
z
" transform="scale(0.015625)"/>
       <path id="DejaVuSans-67" d="M 2906 1791 
Q 2906 2416 2648 2759 
Q 2391 3103 1925 3103 
Q 1463 3103 1205 2759 
Q 947 2416 947 1791 
Q 947 1169 1205 825 
Q 1463 481 1925 481 
Q 2391 481 2648 825 
Q 2906 1169 2906 1791 
z
M 3481 434 
Q 3481 -459 3084 -895 
Q 2688 -1331 1869 -1331 
Q 1566 -1331 1297 -1286 
Q 1028 -1241 775 -1147 
L 775 -588 
Q 1028 -725 1275 -790 
Q 1522 -856 1778 -856 
Q 2344 -856 2625 -561 
Q 2906 -266 2906 331 
L 2906 616 
Q 2728 306 2450 153 
Q 2172 0 1784 0 
Q 1141 0 747 490 
Q 353 981 353 1791 
Q 353 2603 747 3093 
Q 1141 3584 1784 3584 
Q 2172 3584 2450 3431 
Q 2728 3278 2906 2969 
L 2906 3500 
L 3481 3500 
L 3481 434 
z
" transform="scale(0.015625)"/>
       <path id="DejaVuSans-65" d="M 3597 1894 
L 3597 1613 
L 953 1613 
Q 991 1019 1311 708 
Q 1631 397 2203 397 
Q 2534 397 2845 478 
Q 3156 559 3463 722 
L 3463 178 
Q 3153 47 2828 -22 
Q 2503 -91 2169 -91 
Q 1331 -91 842 396 
Q 353 884 353 1716 
Q 353 2575 817 3079 
Q 1281 3584 2069 3584 
Q 2775 3584 3186 3129 
Q 3597 2675 3597 1894 
z
M 3022 2063 
Q 3016 2534 2758 2815 
Q 2500 3097 2075 3097 
Q 1594 3097 1305 2825 
Q 1016 2553 972 2059 
L 3022 2063 
z
" transform="scale(0.015625)"/>
      </defs>
      <use xlink:href="#DejaVuSans-61"/>
      <use xlink:href="#DejaVuSans-67" x="61.279297"/>
      <use xlink:href="#DejaVuSans-65" x="124.755859"/>
     </g>
    </g>
   </g>
   <g id="matplotlib.axis_2">
    <g id="ytick_1">
     <g id="line2d_9">
      <path d="M 80.64 535.68 
L 957.6 535.68 
" clip-path="url(#pdc00ec5d1c)" style="fill: none; stroke: #cbcbcb"/>
     </g>
     <g id="line2d_10"/>
     <g id="text_6">
      <!-- 0 -->
      <g transform="translate(68.2325 540.998906) scale(0.14 -0.14)">
       <use xlink:href="#DejaVuSans-30"/>
      </g>
     </g>
    </g>
    <g id="ytick_2">
     <g id="line2d_11">
      <path d="M 80.64 459.723956 
L 957.6 459.723956 
" clip-path="url(#pdc00ec5d1c)" style="fill: none; stroke: #cbcbcb"/>
     </g>
     <g id="line2d_12"/>
     <g id="text_7">
      <!-- 20 -->
      <g transform="translate(59.325 465.042862) scale(0.14 -0.14)">
       <use xlink:href="#DejaVuSans-32"/>
       <use xlink:href="#DejaVuSans-30" x="63.623047"/>
      </g>
     </g>
    </g>
    <g id="ytick_3">
     <g id="line2d_13">
      <path d="M 80.64 383.767912 
L 957.6 383.767912 
" clip-path="url(#pdc00ec5d1c)" style="fill: none; stroke: #cbcbcb"/>
     </g>
     <g id="line2d_14"/>
     <g id="text_8">
      <!-- 40 -->
      <g transform="translate(59.325 389.086818) scale(0.14 -0.14)">
       <use xlink:href="#DejaVuSans-34"/>
       <use xlink:href="#DejaVuSans-30" x="63.623047"/>
      </g>
     </g>
    </g>
    <g id="ytick_4">
     <g id="line2d_15">
      <path d="M 80.64 307.811868 
L 957.6 307.811868 
" clip-path="url(#pdc00ec5d1c)" style="fill: none; stroke: #cbcbcb"/>
     </g>
     <g id="line2d_16"/>
     <g id="text_9">
      <!-- 60 -->
      <g transform="translate(59.325 313.130774) scale(0.14 -0.14)">
       <use xlink:href="#DejaVuSans-36"/>
       <use xlink:href="#DejaVuSans-30" x="63.623047"/>
      </g>
     </g>
    </g>
    <g id="ytick_5">
     <g id="line2d_17">
      <path d="M 80.64 231.855824 
L 957.6 231.855824 
" clip-path="url(#pdc00ec5d1c)" style="fill: none; stroke: #cbcbcb"/>
     </g>
     <g id="line2d_18"/>
     <g id="text_10">
      <!-- 80 -->
      <g transform="translate(59.325 237.17473) scale(0.14 -0.14)">
       <use xlink:href="#DejaVuSans-38"/>
       <use xlink:href="#DejaVuSans-30" x="63.623047"/>
      </g>
     </g>
    </g>
    <g id="ytick_6">
     <g id="line2d_19">
      <path d="M 80.64 155.89978 
L 957.6 155.89978 
" clip-path="url(#pdc00ec5d1c)" style="fill: none; stroke: #cbcbcb"/>
     </g>
     <g id="line2d_20"/>
     <g id="text_11">
      <!-- 100 -->
      <g transform="translate(50.4175 161.218686) scale(0.14 -0.14)">
       <defs>
        <path id="DejaVuSans-31" d="M 794 531 
L 1825 531 
L 1825 4091 
L 703 3866 
L 703 4441 
L 1819 4666 
L 2450 4666 
L 2450 531 
L 3481 531 
L 3481 0 
L 794 0 
L 794 531 
z
" transform="scale(0.015625)"/>
       </defs>
       <use xlink:href="#DejaVuSans-31"/>
       <use xlink:href="#DejaVuSans-30" x="63.623047"/>
       <use xlink:href="#DejaVuSans-30" x="127.246094"/>
      </g>
     </g>
    </g>
    <g id="ytick_7">
     <g id="line2d_21">
      <path d="M 80.64 79.943736 
L 957.6 79.943736 
" clip-path="url(#pdc00ec5d1c)" style="fill: none; stroke: #cbcbcb"/>
     </g>
     <g id="line2d_22"/>
     <g id="text_12">
      <!-- 120 -->
      <g transform="translate(50.4175 85.262643) scale(0.14 -0.14)">
       <use xlink:href="#DejaVuSans-31"/>
       <use xlink:href="#DejaVuSans-32" x="63.623047"/>
       <use xlink:href="#DejaVuSans-30" x="127.246094"/>
      </g>
     </g>
    </g>
    <g id="text_13">
     <!-- Count -->
     <g transform="translate(42.923625 327.345375) rotate(-90) scale(0.168 -0.168)">
      <defs>
       <path id="DejaVuSans-43" d="M 4122 4306 
L 4122 3641 
Q 3803 3938 3442 4084 
Q 3081 4231 2675 4231 
Q 1875 4231 1450 3742 
Q 1025 3253 1025 2328 
Q 1025 1406 1450 917 
Q 1875 428 2675 428 
Q 3081 428 3442 575 
Q 3803 722 4122 1019 
L 4122 359 
Q 3791 134 3420 21 
Q 3050 -91 2638 -91 
Q 1578 -91 968 557 
Q 359 1206 359 2328 
Q 359 3453 968 4101 
Q 1578 4750 2638 4750 
Q 3056 4750 3426 4639 
Q 3797 4528 4122 4306 
z
" transform="scale(0.015625)"/>
       <path id="DejaVuSans-6f" d="M 1959 3097 
Q 1497 3097 1228 2736 
Q 959 2375 959 1747 
Q 959 1119 1226 758 
Q 1494 397 1959 397 
Q 2419 397 2687 759 
Q 2956 1122 2956 1747 
Q 2956 2369 2687 2733 
Q 2419 3097 1959 3097 
z
M 1959 3584 
Q 2709 3584 3137 3096 
Q 3566 2609 3566 1747 
Q 3566 888 3137 398 
Q 2709 -91 1959 -91 
Q 1206 -91 779 398 
Q 353 888 353 1747 
Q 353 2609 779 3096 
Q 1206 3584 1959 3584 
z
" transform="scale(0.015625)"/>
       <path id="DejaVuSans-75" d="M 544 1381 
L 544 3500 
L 1119 3500 
L 1119 1403 
Q 1119 906 1312 657 
Q 1506 409 1894 409 
Q 2359 409 2629 706 
Q 2900 1003 2900 1516 
L 2900 3500 
L 3475 3500 
L 3475 0 
L 2900 0 
L 2900 538 
Q 2691 219 2414 64 
Q 2138 -91 1772 -91 
Q 1169 -91 856 284 
Q 544 659 544 1381 
z
M 1991 3584 
L 1991 3584 
z
" transform="scale(0.015625)"/>
       <path id="DejaVuSans-6e" d="M 3513 2113 
L 3513 0 
L 2938 0 
L 2938 2094 
Q 2938 2591 2744 2837 
Q 2550 3084 2163 3084 
Q 1697 3084 1428 2787 
Q 1159 2491 1159 1978 
L 1159 0 
L 581 0 
L 581 3500 
L 1159 3500 
L 1159 2956 
Q 1366 3272 1645 3428 
Q 1925 3584 2291 3584 
Q 2894 3584 3203 3211 
Q 3513 2838 3513 2113 
z
" transform="scale(0.015625)"/>
       <path id="DejaVuSans-74" d="M 1172 4494 
L 1172 3500 
L 2356 3500 
L 2356 3053 
L 1172 3053 
L 1172 1153 
Q 1172 725 1289 603 
Q 1406 481 1766 481 
L 2356 481 
L 2356 0 
L 1766 0 
Q 1100 0 847 248 
Q 594 497 594 1153 
L 594 3053 
L 172 3053 
L 172 3500 
L 594 3500 
L 594 4494 
L 1172 4494 
z
" transform="scale(0.015625)"/>
      </defs>
      <use xlink:href="#DejaVuSans-43"/>
      <use xlink:href="#DejaVuSans-6f" x="69.824219"/>
      <use xlink:href="#DejaVuSans-75" x="131.005859"/>
      <use xlink:href="#DejaVuSans-6e" x="194.384766"/>
      <use xlink:href="#DejaVuSans-74" x="257.763672"/>
     </g>
    </g>
   </g>
   <g id="PolyCollection_1">
    <defs>
     <path id="m6d742208cc" d="M 120.501818 -40.32 
L 120.501818 -40.32 
L 147.076364 -40.32 
L 147.076364 -40.32 
L 173.650909 -40.32 
L 173.650909 -40.32 
L 200.225455 -40.32 
L 200.225455 -40.32 
L 226.8 -40.32 
L 226.8 -40.32 
L 253.374545 -40.32 
L 253.374545 -40.32 
L 279.949091 -40.32 
L 279.949091 -40.32 
L 306.523636 -40.32 
L 306.523636 -40.32 
L 333.098182 -40.32 
L 333.098182 -40.32 
L 359.672727 -40.32 
L 359.672727 -40.32 
L 386.247273 -40.32 
L 386.247273 -40.32 
L 412.821818 -40.32 
L 412.821818 -40.32 
L 439.396364 -40.32 
L 439.396364 -40.32 
L 465.970909 -40.32 
L 465.970909 -40.32 
L 492.545455 -40.32 
L 492.545455 -40.32 
L 519.12 -40.32 
L 519.12 -40.32 
L 545.694545 -40.32 
L 545.694545 -40.32 
L 572.269091 -40.32 
L 572.269091 -40.32 
L 598.843636 -40.32 
L 598.843636 -40.32 
L 625.418182 -40.32 
L 625.418182 -40.32 
L 651.992727 -40.32 
L 651.992727 -40.32 
L 678.567273 -40.32 
L 678.567273 -40.32 
L 705.141818 -40.32 
L 705.141818 -40.32 
L 731.716364 -40.32 
L 731.716364 -40.32 
L 758.290909 -40.32 
L 758.290909 -40.32 
L 784.865455 -40.32 
L 784.865455 -40.32 
L 811.44 -40.32 
L 811.44 -40.32 
L 838.014545 -40.32 
L 838.014545 -40.32 
L 864.589091 -40.32 
L 864.589091 -40.32 
L 891.163636 -40.32 
L 891.163636 -40.32 
L 917.738182 -40.32 
L 917.738182 -40.32 
L 917.738182 -40.32 
L 917.738182 -40.32 
L 917.738182 -40.32 
L 891.163636 -40.32 
L 891.163636 -40.32 
L 864.589091 -40.32 
L 864.589091 -40.32 
L 838.014545 -40.32 
L 838.014545 -40.32 
L 811.44 -40.32 
L 811.44 -40.32 
L 784.865455 -40.32 
L 784.865455 -40.32 
L 758.290909 -40.32 
L 758.290909 -40.32 
L 731.716364 -40.32 
L 731.716364 -40.32 
L 705.141818 -40.32 
L 705.141818 -40.32 
L 678.567273 -40.32 
L 678.567273 -40.32 
L 651.992727 -40.32 
L 651.992727 -40.32 
L 625.418182 -40.32 
L 625.418182 -40.32 
L 598.843636 -40.32 
L 598.843636 -40.32 
L 572.269091 -40.32 
L 572.269091 -40.32 
L 545.694545 -40.32 
L 545.694545 -44.117802 
L 519.12 -44.117802 
L 519.12 -44.117802 
L 492.545455 -44.117802 
L 492.545455 -47.915604 
L 465.970909 -47.915604 
L 465.970909 -40.32 
L 439.396364 -40.32 
L 439.396364 -44.117802 
L 412.821818 -44.117802 
L 412.821818 -55.511209 
L 386.247273 -55.511209 
L 386.247273 -55.511209 
L 359.672727 -55.511209 
L 359.672727 -55.511209 
L 333.098182 -55.511209 
L 333.098182 -55.511209 
L 306.523636 -55.511209 
L 306.523636 -59.309011 
L 279.949091 -59.309011 
L 279.949091 -47.915604 
L 253.374545 -47.915604 
L 253.374545 -51.713407 
L 226.8 -51.713407 
L 226.8 -40.32 
L 200.225455 -40.32 
L 200.225455 -40.32 
L 173.650909 -40.32 
L 173.650909 -40.32 
L 147.076364 -40.32 
L 147.076364 -40.32 
L 120.501818 -40.32 
z
" style="stroke: #810f7c; stroke-width: 0.5"/>
    </defs>
    <g clip-path="url(#pdc00ec5d1c)">
     <use xlink:href="#m6d742208cc" x="0" y="576" style="fill: #810f7c; fill-opacity: 0.25; stroke: #810f7c; stroke-width: 0.5"/>
    </g>
   </g>
   <g id="PolyCollection_2">
    <defs>
     <path id="m6432f5463f" d="M 120.501818 -40.32 
L 120.501818 -40.32 
L 147.076364 -40.32 
L 147.076364 -40.32 
L 173.650909 -40.32 
L 173.650909 -40.32 
L 200.225455 -40.32 
L 200.225455 -40.32 
L 226.8 -40.32 
L 226.8 -40.32 
L 253.374545 -40.32 
L 253.374545 -40.32 
L 279.949091 -40.32 
L 279.949091 -40.32 
L 306.523636 -40.32 
L 306.523636 -40.32 
L 333.098182 -40.32 
L 333.098182 -40.32 
L 359.672727 -40.32 
L 359.672727 -40.32 
L 386.247273 -40.32 
L 386.247273 -40.32 
L 412.821818 -40.32 
L 412.821818 -40.32 
L 439.396364 -40.32 
L 439.396364 -40.32 
L 465.970909 -40.32 
L 465.970909 -40.32 
L 492.545455 -40.32 
L 492.545455 -40.32 
L 519.12 -40.32 
L 519.12 -40.32 
L 545.694545 -40.32 
L 545.694545 -40.32 
L 572.269091 -40.32 
L 572.269091 -40.32 
L 598.843636 -40.32 
L 598.843636 -40.32 
L 625.418182 -40.32 
L 625.418182 -40.32 
L 651.992727 -40.32 
L 651.992727 -40.32 
L 678.567273 -40.32 
L 678.567273 -40.32 
L 705.141818 -40.32 
L 705.141818 -40.32 
L 731.716364 -40.32 
L 731.716364 -40.32 
L 758.290909 -40.32 
L 758.290909 -40.32 
L 784.865455 -40.32 
L 784.865455 -40.32 
L 811.44 -40.32 
L 811.44 -40.32 
L 838.014545 -40.32 
L 838.014545 -40.32 
L 864.589091 -40.32 
L 864.589091 -40.32 
L 891.163636 -40.32 
L 891.163636 -40.32 
L 917.738182 -40.32 
L 917.738182 -40.32 
L 917.738182 -40.32 
L 917.738182 -40.32 
L 917.738182 -40.32 
L 891.163636 -40.32 
L 891.163636 -40.32 
L 864.589091 -40.32 
L 864.589091 -40.32 
L 838.014545 -40.32 
L 838.014545 -40.32 
L 811.44 -40.32 
L 811.44 -40.32 
L 784.865455 -40.32 
L 784.865455 -40.32 
L 758.290909 -40.32 
L 758.290909 -40.32 
L 731.716364 -40.32 
L 731.716364 -40.32 
L 705.141818 -40.32 
L 705.141818 -40.32 
L 678.567273 -40.32 
L 678.567273 -40.32 
L 651.992727 -40.32 
L 651.992727 -40.32 
L 625.418182 -40.32 
L 625.418182 -40.32 
L 598.843636 -40.32 
L 598.843636 -44.117802 
L 572.269091 -44.117802 
L 572.269091 -44.117802 
L 545.694545 -44.117802 
L 545.694545 -44.117802 
L 519.12 -44.117802 
L 519.12 -51.713407 
L 492.545455 -51.713407 
L 492.545455 -40.32 
L 465.970909 -40.32 
L 465.970909 -47.915604 
L 439.396364 -47.915604 
L 439.396364 -44.117802 
L 412.821818 -44.117802 
L 412.821818 -44.117802 
L 386.247273 -44.117802 
L 386.247273 -44.117802 
L 359.672727 -44.117802 
L 359.672727 -66.904615 
L 333.098182 -66.904615 
L 333.098182 -51.713407 
L 306.523636 -51.713407 
L 306.523636 -47.915604 
L 279.949091 -47.915604 
L 279.949091 -44.117802 
L 253.374545 -44.117802 
L 253.374545 -55.511209 
L 226.8 -55.511209 
L 226.8 -40.32 
L 200.225455 -40.32 
L 200.225455 -40.32 
L 173.650909 -40.32 
L 173.650909 -40.32 
L 147.076364 -40.32 
L 147.076364 -40.32 
L 120.501818 -40.32 
z
" style="stroke: #8b8b8b; stroke-width: 0.5"/>
    </defs>
    <g clip-path="url(#pdc00ec5d1c)">
     <use xlink:href="#m6432f5463f" x="0" y="576" style="fill: #8b8b8b; fill-opacity: 0.25; stroke: #8b8b8b; stroke-width: 0.5"/>
    </g>
   </g>
   <g id="PolyCollection_3">
    <defs>
     <path id="m7da062353f" d="M 120.501818 -40.32 
L 120.501818 -40.32 
L 147.076364 -40.32 
L 147.076364 -40.32 
L 173.650909 -40.32 
L 173.650909 -40.32 
L 200.225455 -40.32 
L 200.225455 -40.32 
L 226.8 -40.32 
L 226.8 -40.32 
L 253.374545 -40.32 
L 253.374545 -40.32 
L 279.949091 -40.32 
L 279.949091 -40.32 
L 306.523636 -40.32 
L 306.523636 -40.32 
L 333.098182 -40.32 
L 333.098182 -40.32 
L 359.672727 -40.32 
L 359.672727 -40.32 
L 386.247273 -40.32 
L 386.247273 -40.32 
L 412.821818 -40.32 
L 412.821818 -40.32 
L 439.396364 -40.32 
L 439.396364 -40.32 
L 465.970909 -40.32 
L 465.970909 -40.32 
L 492.545455 -40.32 
L 492.545455 -40.32 
L 519.12 -40.32 
L 519.12 -40.32 
L 545.694545 -40.32 
L 545.694545 -40.32 
L 572.269091 -40.32 
L 572.269091 -40.32 
L 598.843636 -40.32 
L 598.843636 -40.32 
L 625.418182 -40.32 
L 625.418182 -40.32 
L 651.992727 -40.32 
L 651.992727 -40.32 
L 678.567273 -40.32 
L 678.567273 -40.32 
L 705.141818 -40.32 
L 705.141818 -40.32 
L 731.716364 -40.32 
L 731.716364 -40.32 
L 758.290909 -40.32 
L 758.290909 -40.32 
L 784.865455 -40.32 
L 784.865455 -40.32 
L 811.44 -40.32 
L 811.44 -40.32 
L 838.014545 -40.32 
L 838.014545 -40.32 
L 864.589091 -40.32 
L 864.589091 -40.32 
L 891.163636 -40.32 
L 891.163636 -40.32 
L 917.738182 -40.32 
L 917.738182 -40.32 
L 917.738182 -40.32 
L 917.738182 -40.32 
L 917.738182 -40.32 
L 891.163636 -40.32 
L 891.163636 -40.32 
L 864.589091 -40.32 
L 864.589091 -40.32 
L 838.014545 -40.32 
L 838.014545 -40.32 
L 811.44 -40.32 
L 811.44 -44.117802 
L 784.865455 -44.117802 
L 784.865455 -44.117802 
L 758.290909 -44.117802 
L 758.290909 -40.32 
L 731.716364 -40.32 
L 731.716364 -40.32 
L 705.141818 -40.32 
L 705.141818 -51.713407 
L 678.567273 -51.713407 
L 678.567273 -63.106813 
L 651.992727 -63.106813 
L 651.992727 -55.511209 
L 625.418182 -55.511209 
L 625.418182 -66.904615 
L 598.843636 -66.904615 
L 598.843636 -66.904615 
L 572.269091 -66.904615 
L 572.269091 -70.702418 
L 545.694545 -70.702418 
L 545.694545 -104.882637 
L 519.12 -104.882637 
L 519.12 -108.68044 
L 492.545455 -108.68044 
L 492.545455 -116.276044 
L 465.970909 -116.276044 
L 465.970909 -154.254066 
L 439.396364 -154.254066 
L 439.396364 -139.062857 
L 412.821818 -139.062857 
L 412.821818 -241.603516 
L 386.247273 -241.603516 
L 386.247273 -268.188132 
L 359.672727 -268.188132 
L 359.672727 -309.963956 
L 333.098182 -309.963956 
L 333.098182 -260.592527 
L 306.523636 -260.592527 
L 306.523636 -393.515604 
L 279.949091 -393.515604 
L 279.949091 -203.625495 
L 253.374545 -203.625495 
L 253.374545 -283.379341 
L 226.8 -283.379341 
L 226.8 -108.68044 
L 200.225455 -108.68044 
L 200.225455 -44.117802 
L 173.650909 -44.117802 
L 173.650909 -40.32 
L 147.076364 -40.32 
L 147.076364 -40.32 
L 120.501818 -40.32 
z
" style="stroke: #6d904f; stroke-width: 0.5"/>
    </defs>
    <g clip-path="url(#pdc00ec5d1c)">
     <use xlink:href="#m7da062353f" x="0" y="576" style="fill: #6d904f; fill-opacity: 0.25; stroke: #6d904f; stroke-width: 0.5"/>
    </g>
   </g>
   <g id="PolyCollection_4">
    <defs>
     <path id="m8e53822e36" d="M 120.501818 -40.32 
L 120.501818 -40.32 
L 147.076364 -40.32 
L 147.076364 -40.32 
L 173.650909 -40.32 
L 173.650909 -40.32 
L 200.225455 -40.32 
L 200.225455 -40.32 
L 226.8 -40.32 
L 226.8 -40.32 
L 253.374545 -40.32 
L 253.374545 -40.32 
L 279.949091 -40.32 
L 279.949091 -40.32 
L 306.523636 -40.32 
L 306.523636 -40.32 
L 333.098182 -40.32 
L 333.098182 -40.32 
L 359.672727 -40.32 
L 359.672727 -40.32 
L 386.247273 -40.32 
L 386.247273 -40.32 
L 412.821818 -40.32 
L 412.821818 -40.32 
L 439.396364 -40.32 
L 439.396364 -40.32 
L 465.970909 -40.32 
L 465.970909 -40.32 
L 492.545455 -40.32 
L 492.545455 -40.32 
L 519.12 -40.32 
L 519.12 -40.32 
L 545.694545 -40.32 
L 545.694545 -40.32 
L 572.269091 -40.32 
L 572.269091 -40.32 
L 598.843636 -40.32 
L 598.843636 -40.32 
L 625.418182 -40.32 
L 625.418182 -40.32 
L 651.992727 -40.32 
L 651.992727 -40.32 
L 678.567273 -40.32 
L 678.567273 -40.32 
L 705.141818 -40.32 
L 705.141818 -40.32 
L 731.716364 -40.32 
L 731.716364 -40.32 
L 758.290909 -40.32 
L 758.290909 -40.32 
L 784.865455 -40.32 
L 784.865455 -40.32 
L 811.44 -40.32 
L 811.44 -40.32 
L 838.014545 -40.32 
L 838.014545 -40.32 
L 864.589091 -40.32 
L 864.589091 -40.32 
L 891.163636 -40.32 
L 891.163636 -40.32 
L 917.738182 -40.32 
L 917.738182 -40.32 
L 917.738182 -40.32 
L 917.738182 -40.32 
L 917.738182 -40.32 
L 891.163636 -40.32 
L 891.163636 -40.32 
L 864.589091 -40.32 
L 864.589091 -40.32 
L 838.014545 -40.32 
L 838.014545 -44.117802 
L 811.44 -44.117802 
L 811.44 -40.32 
L 784.865455 -40.32 
L 784.865455 -40.32 
L 758.290909 -40.32 
L 758.290909 -44.117802 
L 731.716364 -44.117802 
L 731.716364 -51.713407 
L 705.141818 -51.713407 
L 705.141818 -40.32 
L 678.567273 -40.32 
L 678.567273 -51.713407 
L 651.992727 -51.713407 
L 651.992727 -44.117802 
L 625.418182 -44.117802 
L 625.418182 -55.511209 
L 598.843636 -55.511209 
L 598.843636 -66.904615 
L 572.269091 -66.904615 
L 572.269091 -59.309011 
L 545.694545 -59.309011 
L 545.694545 -89.691429 
L 519.12 -89.691429 
L 519.12 -93.489231 
L 492.545455 -93.489231 
L 492.545455 -120.073846 
L 465.970909 -120.073846 
L 465.970909 -127.669451 
L 439.396364 -127.669451 
L 439.396364 -139.062857 
L 412.821818 -139.062857 
L 412.821818 -192.232088 
L 386.247273 -192.232088 
L 386.247273 -207.423297 
L 359.672727 -207.423297 
L 359.672727 -184.636484 
L 333.098182 -184.636484 
L 333.098182 -226.412308 
L 306.523636 -226.412308 
L 306.523636 -252.996923 
L 279.949091 -252.996923 
L 279.949091 -150.456264 
L 253.374545 -150.456264 
L 253.374545 -127.669451 
L 226.8 -127.669451 
L 226.8 -82.095824 
L 200.225455 -82.095824 
L 200.225455 -44.117802 
L 173.650909 -44.117802 
L 173.650909 -40.32 
L 147.076364 -40.32 
L 147.076364 -40.32 
L 120.501818 -40.32 
z
" style="stroke: #e5ae38; stroke-width: 0.5"/>
    </defs>
    <g clip-path="url(#pdc00ec5d1c)">
     <use xlink:href="#m8e53822e36" x="0" y="576" style="fill: #e5ae38; fill-opacity: 0.25; stroke: #e5ae38; stroke-width: 0.5"/>
    </g>
   </g>
   <g id="PolyCollection_5">
    <defs>
     <path id="m42f5b8e271" d="M 120.501818 -44.117802 
L 120.501818 -40.32 
L 147.076364 -40.32 
L 147.076364 -40.32 
L 173.650909 -40.32 
L 173.650909 -40.32 
L 200.225455 -40.32 
L 200.225455 -40.32 
L 226.8 -40.32 
L 226.8 -40.32 
L 253.374545 -40.32 
L 253.374545 -40.32 
L 279.949091 -40.32 
L 279.949091 -40.32 
L 306.523636 -40.32 
L 306.523636 -40.32 
L 333.098182 -40.32 
L 333.098182 -40.32 
L 359.672727 -40.32 
L 359.672727 -40.32 
L 386.247273 -40.32 
L 386.247273 -40.32 
L 412.821818 -40.32 
L 412.821818 -40.32 
L 439.396364 -40.32 
L 439.396364 -40.32 
L 465.970909 -40.32 
L 465.970909 -40.32 
L 492.545455 -40.32 
L 492.545455 -40.32 
L 519.12 -40.32 
L 519.12 -40.32 
L 545.694545 -40.32 
L 545.694545 -40.32 
L 572.269091 -40.32 
L 572.269091 -40.32 
L 598.843636 -40.32 
L 598.843636 -40.32 
L 625.418182 -40.32 
L 625.418182 -40.32 
L 651.992727 -40.32 
L 651.992727 -40.32 
L 678.567273 -40.32 
L 678.567273 -40.32 
L 705.141818 -40.32 
L 705.141818 -40.32 
L 731.716364 -40.32 
L 731.716364 -40.32 
L 758.290909 -40.32 
L 758.290909 -40.32 
L 784.865455 -40.32 
L 784.865455 -40.32 
L 811.44 -40.32 
L 811.44 -40.32 
L 838.014545 -40.32 
L 838.014545 -40.32 
L 864.589091 -40.32 
L 864.589091 -40.32 
L 891.163636 -40.32 
L 891.163636 -40.32 
L 917.738182 -40.32 
L 917.738182 -40.32 
L 917.738182 -44.117802 
L 917.738182 -44.117802 
L 917.738182 -44.117802 
L 891.163636 -44.117802 
L 891.163636 -40.32 
L 864.589091 -40.32 
L 864.589091 -47.915604 
L 838.014545 -47.915604 
L 838.014545 -47.915604 
L 811.44 -47.915604 
L 811.44 -44.117802 
L 784.865455 -44.117802 
L 784.865455 -66.904615 
L 758.290909 -66.904615 
L 758.290909 -51.713407 
L 731.716364 -51.713407 
L 731.716364 -85.893626 
L 705.141818 -85.893626 
L 705.141818 -97.287033 
L 678.567273 -97.287033 
L 678.567273 -123.871648 
L 651.992727 -123.871648 
L 651.992727 -146.658462 
L 625.418182 -146.658462 
L 625.418182 -245.401319 
L 598.843636 -245.401319 
L 598.843636 -180.838681 
L 572.269091 -180.838681 
L 572.269091 -313.761758 
L 545.694545 -313.761758 
L 545.694545 -355.537582 
L 519.12 -355.537582 
L 519.12 -290.974945 
L 492.545455 -290.974945 
L 492.545455 -351.73978 
L 465.970909 -351.73978 
L 465.970909 -317.55956 
L 439.396364 -317.55956 
L 439.396364 -222.614505 
L 412.821818 -222.614505 
L 412.821818 -484.662857 
L 386.247273 -484.662857 
L 386.247273 -420.10022 
L 359.672727 -420.10022 
L 359.672727 -450.482637 
L 333.098182 -450.482637 
L 333.098182 -374.526593 
L 306.523636 -374.526593 
L 306.523636 -370.728791 
L 279.949091 -370.728791 
L 279.949091 -158.051868 
L 253.374545 -158.051868 
L 253.374545 -173.243077 
L 226.8 -173.243077 
L 226.8 -101.084835 
L 200.225455 -101.084835 
L 200.225455 -44.117802 
L 173.650909 -44.117802 
L 173.650909 -40.32 
L 147.076364 -40.32 
L 147.076364 -44.117802 
L 120.501818 -44.117802 
z
" style="stroke: #fc4f30; stroke-width: 0.5"/>
    </defs>
    <g clip-path="url(#pdc00ec5d1c)">
     <use xlink:href="#m42f5b8e271" x="0" y="576" style="fill: #fc4f30; fill-opacity: 0.25; stroke: #fc4f30; stroke-width: 0.5"/>
    </g>
   </g>
   <g id="PolyCollection_6">
    <defs>
     <path id="mb344379f27" d="M 120.501818 -40.32 
L 120.501818 -40.32 
L 147.076364 -40.32 
L 147.076364 -40.32 
L 173.650909 -40.32 
L 173.650909 -40.32 
L 200.225455 -40.32 
L 200.225455 -40.32 
L 226.8 -40.32 
L 226.8 -40.32 
L 253.374545 -40.32 
L 253.374545 -40.32 
L 279.949091 -40.32 
L 279.949091 -40.32 
L 306.523636 -40.32 
L 306.523636 -40.32 
L 333.098182 -40.32 
L 333.098182 -40.32 
L 359.672727 -40.32 
L 359.672727 -40.32 
L 386.247273 -40.32 
L 386.247273 -40.32 
L 412.821818 -40.32 
L 412.821818 -40.32 
L 439.396364 -40.32 
L 439.396364 -40.32 
L 465.970909 -40.32 
L 465.970909 -40.32 
L 492.545455 -40.32 
L 492.545455 -40.32 
L 519.12 -40.32 
L 519.12 -40.32 
L 545.694545 -40.32 
L 545.694545 -40.32 
L 572.269091 -40.32 
L 572.269091 -40.32 
L 598.843636 -40.32 
L 598.843636 -40.32 
L 625.418182 -40.32 
L 625.418182 -40.32 
L 651.992727 -40.32 
L 651.992727 -40.32 
L 678.567273 -40.32 
L 678.567273 -40.32 
L 705.141818 -40.32 
L 705.141818 -40.32 
L 731.716364 -40.32 
L 731.716364 -40.32 
L 758.290909 -40.32 
L 758.290909 -40.32 
L 784.865455 -40.32 
L 784.865455 -40.32 
L 811.44 -40.32 
L 811.44 -40.32 
L 838.014545 -40.32 
L 838.014545 -40.32 
L 864.589091 -40.32 
L 864.589091 -40.32 
L 891.163636 -40.32 
L 891.163636 -40.32 
L 917.738182 -40.32 
L 917.738182 -40.32 
L 917.738182 -40.32 
L 917.738182 -40.32 
L 917.738182 -40.32 
L 891.163636 -40.32 
L 891.163636 -40.32 
L 864.589091 -40.32 
L 864.589091 -40.32 
L 838.014545 -40.32 
L 838.014545 -40.32 
L 811.44 -40.32 
L 811.44 -40.32 
L 784.865455 -40.32 
L 784.865455 -40.32 
L 758.290909 -40.32 
L 758.290909 -40.32 
L 731.716364 -40.32 
L 731.716364 -40.32 
L 705.141818 -40.32 
L 705.141818 -40.32 
L 678.567273 -40.32 
L 678.567273 -40.32 
L 651.992727 -40.32 
L 651.992727 -47.915604 
L 625.418182 -47.915604 
L 625.418182 -44.117802 
L 598.843636 -44.117802 
L 598.843636 -40.32 
L 572.269091 -40.32 
L 572.269091 -47.915604 
L 545.694545 -47.915604 
L 545.694545 -40.32 
L 519.12 -40.32 
L 519.12 -44.117802 
L 492.545455 -44.117802 
L 492.545455 -59.309011 
L 465.970909 -59.309011 
L 465.970909 -51.713407 
L 439.396364 -51.713407 
L 439.396364 -51.713407 
L 412.821818 -51.713407 
L 412.821818 -51.713407 
L 386.247273 -51.713407 
L 386.247273 -63.106813 
L 359.672727 -63.106813 
L 359.672727 -47.915604 
L 333.098182 -47.915604 
L 333.098182 -59.309011 
L 306.523636 -59.309011 
L 306.523636 -44.117802 
L 279.949091 -44.117802 
L 279.949091 -40.32 
L 253.374545 -40.32 
L 253.374545 -51.713407 
L 226.8 -51.713407 
L 226.8 -44.117802 
L 200.225455 -44.117802 
L 200.225455 -40.32 
L 173.650909 -40.32 
L 173.650909 -40.32 
L 147.076364 -40.32 
L 147.076364 -40.32 
L 120.501818 -40.32 
z
" style="stroke: #008fd5; stroke-width: 0.5"/>
    </defs>
    <g clip-path="url(#pdc00ec5d1c)">
     <use xlink:href="#mb344379f27" x="0" y="576" style="fill: #008fd5; fill-opacity: 0.25; stroke: #008fd5; stroke-width: 0.5"/>
    </g>
   </g>
   <g id="line2d_23">
    <path d="M 120.501818 535.662211 
L 148.545308 535.521786 
L 164.57016 535.237789 
L 176.588799 534.816536 
L 188.607437 534.130089 
L 196.619863 533.491851 
L 204.632289 532.696494 
L 216.650927 531.217809 
L 228.669566 529.462626 
L 256.713056 525.133229 
L 264.725482 524.074239 
L 272.737908 523.175745 
L 280.750333 522.461731 
L 288.762759 521.939763 
L 296.775185 521.601293 
L 308.793824 521.386251 
L 320.812462 521.422837 
L 340.843527 521.754076 
L 360.874591 522.264033 
L 372.89323 522.742435 
L 384.911868 523.453553 
L 396.930507 524.440562 
L 408.949146 525.662937 
L 436.992636 528.653714 
L 449.011275 529.639855 
L 461.029913 530.361823 
L 477.054765 531.022902 
L 509.104468 532.212229 
L 537.147958 533.579421 
L 557.179022 534.486706 
L 573.203874 535.022286 
L 589.228725 535.364444 
L 609.25979 535.57774 
L 641.309493 535.66992 
L 809.570434 535.68 
L 917.738182 535.68 
L 917.738182 535.68 
" clip-path="url(#pdc00ec5d1c)" style="fill: none; stroke: #810f7c; stroke-width: 4"/>
   </g>
   <g id="line2d_24">
    <path d="M 120.501818 535.365156 
L 140.532883 535.002809 
L 160.563947 534.389418 
L 176.588799 533.687881 
L 196.619863 532.557132 
L 220.65714 530.919022 
L 284.756546 526.320458 
L 300.781398 525.502705 
L 312.800037 525.110844 
L 324.818675 524.955902 
L 336.837314 525.058207 
L 348.855952 525.408709 
L 360.874591 525.967461 
L 380.905656 527.179626 
L 408.949146 528.884098 
L 424.973997 529.62163 
L 440.998849 530.129466 
L 461.029913 530.487612 
L 493.079616 530.744045 
L 521.123106 531.045347 
L 545.160384 531.54612 
L 569.197661 532.274534 
L 645.315706 534.777977 
L 669.352983 535.235371 
L 697.396473 535.521962 
L 737.458602 535.656313 
L 853.638776 535.679995 
L 917.738182 535.68 
L 917.738182 535.68 
" clip-path="url(#pdc00ec5d1c)" style="fill: none; stroke: #8b8b8b; stroke-width: 4"/>
   </g>
   <g id="line2d_25">
    <path d="M 120.501818 535.442886 
L 128.514244 535.164378 
L 136.52667 534.614525 
L 140.532883 534.17668 
L 144.539095 533.584705 
L 148.545308 532.794838 
L 152.551521 531.754834 
L 156.557734 530.403711 
L 160.563947 528.672041 
L 164.57016 526.482941 
L 168.576373 523.753918 
L 172.582586 520.399673 
L 176.588799 516.335887 
L 180.595011 511.483918 
L 184.601224 505.776199 
L 188.607437 499.162002 
L 192.61365 491.613086 
L 196.619863 483.128697 
L 200.626076 473.739289 
L 204.632289 463.508434 
L 208.638502 452.532471 
L 212.644714 440.93766 
L 220.65714 416.512341 
L 232.675779 379.376978 
L 236.681992 367.526327 
L 240.688205 356.165481 
L 244.694418 345.393099 
L 248.70063 335.2822 
L 252.706843 325.882962 
L 256.713056 317.22745 
L 260.719269 309.335285 
L 264.725482 302.2192 
L 268.731695 295.889446 
L 272.737908 290.3563 
L 276.744121 285.630283 
L 280.750333 281.720176 
L 284.756546 278.629372 
L 288.762759 276.351401 
L 292.768972 274.865689 
L 296.775185 274.134558 
L 300.781398 274.102232 
L 304.787611 274.696287 
L 308.793824 275.831485 
L 312.800037 277.415538 
L 316.806249 279.355958 
L 320.812462 281.56703 
L 324.818675 283.975873 
L 332.831101 289.183381 
L 340.843527 294.760517 
L 348.855952 300.741415 
L 352.862165 303.930694 
L 356.868378 307.279129 
L 360.874591 310.80072 
L 364.880804 314.502205 
L 368.887017 318.38279 
L 372.89323 322.435243 
L 380.905656 331.007757 
L 388.918081 340.121442 
L 396.930507 349.718141 
L 404.942933 359.800685 
L 412.955359 370.395338 
L 420.967784 381.482639 
L 432.986423 398.73488 
L 440.998849 410.261599 
L 449.011275 421.402468 
L 453.017487 426.715911 
L 457.0237 431.803753 
L 461.029913 436.631681 
L 465.036126 441.17204 
L 469.042339 445.404769 
L 473.048552 449.318048 
L 477.054765 452.908637 
L 481.060978 456.181893 
L 485.06719 459.151469 
L 489.073403 461.838669 
L 493.079616 464.27148 
L 497.085829 466.483276 
L 501.092042 468.511254 
L 509.104468 472.172631 
L 545.160384 487.682689 
L 557.179022 492.87876 
L 565.191448 496.081407 
L 573.203874 499.040031 
L 585.222513 503.145693 
L 597.241151 507.02595 
L 605.253577 509.449556 
L 613.266003 511.617182 
L 621.278429 513.421893 
L 629.290854 514.839513 
L 637.30328 515.963929 
L 653.328132 518.093384 
L 661.340557 519.445885 
L 669.352983 521.076385 
L 681.371622 523.888422 
L 693.39026 526.753826 
L 701.402686 528.487072 
L 709.415112 529.976007 
L 717.427538 531.168754 
L 725.439963 532.043778 
L 733.452389 532.611377 
L 741.464815 532.915145 
L 753.483454 533.03997 
L 773.514518 533.087474 
L 785.533157 533.349192 
L 801.558008 534.003219 
L 825.595286 535.04002 
L 841.620137 535.440802 
L 861.651201 535.633542 
L 901.71333 535.679576 
L 917.738182 535.679962 
L 917.738182 535.679962 
" clip-path="url(#pdc00ec5d1c)" style="fill: none; stroke: #6d904f; stroke-width: 4"/>
   </g>
   <g id="line2d_26">
    <path d="M 120.501818 535.448718 
L 128.514244 535.204646 
L 136.52667 534.755043 
L 144.539095 533.974081 
L 148.545308 533.408391 
L 152.551521 532.693761 
L 156.557734 531.803637 
L 160.563947 530.710239 
L 164.57016 529.385371 
L 168.576373 527.801358 
L 172.582586 525.932038 
L 176.588799 523.75375 
L 180.595011 521.246213 
L 184.601224 518.393231 
L 188.607437 515.183159 
L 192.61365 511.609091 
L 196.619863 507.668773 
L 200.626076 503.364284 
L 204.632289 498.701573 
L 208.638502 493.689963 
L 212.644714 488.341745 
L 216.650927 482.67201 
L 220.65714 476.698789 
L 224.663353 470.443571 
L 228.669566 463.932178 
L 236.681992 450.272819 
L 248.70063 428.886564 
L 256.713056 414.773217 
L 260.719269 407.997619 
L 264.725482 401.52577 
L 268.731695 395.444521 
L 272.737908 389.835809 
L 276.744121 384.772729 
L 280.750333 380.315862 
L 284.756546 376.510153 
L 288.762759 373.382587 
L 292.768972 370.940832 
L 296.775185 369.172927 
L 300.781398 368.04802 
L 304.787611 367.518085 
L 308.793824 367.520486 
L 312.800037 367.981209 
L 316.806249 368.81858 
L 320.812462 369.947252 
L 324.818675 371.282265 
L 344.84974 378.56665 
L 352.862165 380.955979 
L 360.874591 382.969918 
L 372.89323 385.843057 
L 376.899443 386.94088 
L 380.905656 388.18659 
L 384.911868 389.62165 
L 388.918081 391.280888 
L 392.924294 393.190944 
L 396.930507 395.369253 
L 400.93672 397.823518 
L 404.942933 400.55164 
L 408.949146 403.542005 
L 412.955359 406.774096 
L 416.961571 410.219386 
L 424.973997 417.602478 
L 445.005062 436.861968 
L 453.017487 443.998495 
L 457.0237 447.326626 
L 461.029913 450.479827 
L 465.036126 453.45844 
L 469.042339 456.271153 
L 477.054765 461.466474 
L 485.06719 466.23891 
L 497.085829 473.002132 
L 521.123106 486.228539 
L 533.141745 492.597441 
L 541.154171 496.611531 
L 549.166597 500.376886 
L 557.179022 503.862434 
L 565.191448 507.061494 
L 573.203874 509.989236 
L 581.2163 512.673578 
L 589.228725 515.141893 
L 597.241151 517.409294 
L 605.253577 519.47416 
L 613.266003 521.322873 
L 621.278429 522.940889 
L 629.290854 524.324384 
L 637.30328 525.486861 
L 645.315706 526.457697 
L 657.334344 527.63313 
L 669.352983 528.549231 
L 681.371622 529.224477 
L 693.39026 529.64666 
L 709.415112 529.927328 
L 725.439963 530.272009 
L 737.458602 530.811228 
L 749.477241 531.596943 
L 769.508305 532.988528 
L 781.526944 533.573659 
L 793.545582 533.904855 
L 845.62635 534.882047 
L 869.663627 535.411886 
L 889.694692 535.611223 
L 917.738182 535.674915 
L 917.738182 535.674915 
" clip-path="url(#pdc00ec5d1c)" style="fill: none; stroke: #e5ae38; stroke-width: 4"/>
   </g>
   <g id="line2d_27">
    <path d="M 120.501818 533.959798 
L 132.520457 533.474571 
L 140.532883 532.886898 
L 144.539095 532.44344 
L 148.545308 531.858102 
L 152.551521 531.093427 
L 156.557734 530.10763 
L 160.563947 528.855265 
L 164.57016 527.288278 
L 168.576373 525.357489 
L 172.582586 523.014482 
L 176.588799 520.213853 
L 180.595011 516.915651 
L 184.601224 513.087807 
L 188.607437 508.708283 
L 192.61365 503.766647 
L 196.619863 498.264793 
L 200.626076 492.21659 
L 204.632289 485.646373 
L 208.638502 478.586316 
L 212.644714 471.072914 
L 216.650927 463.142942 
L 220.65714 454.829422 
L 224.663353 446.158149 
L 228.669566 437.145344 
L 232.675779 427.796893 
L 236.681992 418.109437 
L 240.688205 408.07335 
L 244.694418 397.677359 
L 248.70063 386.914314 
L 252.706843 375.787385 
L 260.719269 352.539836 
L 268.731695 328.351246 
L 276.744121 303.993727 
L 284.756546 280.479142 
L 288.762759 269.362694 
L 292.768972 258.823408 
L 296.775185 248.946197 
L 300.781398 239.788089 
L 304.787611 231.376366 
L 308.793824 223.709444 
L 312.800037 216.760224 
L 316.806249 210.481377 
L 320.812462 204.811826 
L 324.818675 199.683658 
L 328.824888 195.028696 
L 332.831101 190.7842 
L 336.837314 186.897323 
L 340.843527 183.32823 
L 344.84974 180.051967 
L 348.855952 177.059315 
L 352.862165 174.356882 
L 356.868378 171.966637 
L 360.874591 169.924997 
L 364.880804 168.281399 
L 368.887017 167.096203 
L 372.89323 166.437709 
L 376.899443 166.378107 
L 380.905656 166.988294 
L 384.911868 168.33173 
L 388.918081 170.457678 
L 392.924294 173.394444 
L 396.930507 177.143344 
L 400.93672 181.674178 
L 404.942933 186.922892 
L 408.949146 192.791935 
L 412.955359 199.153479 
L 420.967784 212.729285 
L 428.98021 226.297972 
L 432.986423 232.664504 
L 436.992636 238.565112 
L 440.998849 243.893806 
L 445.005062 248.577761 
L 449.011275 252.578886 
L 453.017487 255.892802 
L 457.0237 258.545543 
L 461.029913 260.588443 
L 465.036126 262.091793 
L 469.042339 263.137922 
L 473.048552 263.814324 
L 477.054765 264.207438 
L 481.060978 264.397577 
L 489.073403 264.43988 
L 501.092042 264.380508 
L 509.104468 264.632251 
L 513.110681 264.927233 
L 517.116894 265.37924 
L 521.123106 266.029513 
L 525.129319 266.925451 
L 529.135532 268.11858 
L 533.141745 269.661193 
L 537.147958 271.602095 
L 541.154171 273.981993 
L 545.160384 276.829191 
L 549.166597 280.156184 
L 553.17281 283.957667 
L 557.179022 288.210296 
L 561.185235 292.874314 
L 565.191448 297.896919 
L 569.197661 303.217022 
L 577.210087 314.497674 
L 585.222513 326.273328 
L 597.241151 344.365297 
L 605.253577 356.733592 
L 613.266003 369.510897 
L 621.278429 382.771532 
L 645.315706 423.267116 
L 649.321919 429.56025 
L 653.328132 435.575653 
L 657.334344 441.275887 
L 661.340557 446.636491 
L 665.34677 451.646432 
L 669.352983 456.307467 
L 673.359196 460.632642 
L 677.365409 464.64418 
L 681.371622 468.371025 
L 685.377835 471.846267 
L 689.384048 475.104664 
L 693.39026 478.180363 
L 701.402686 483.905919 
L 709.415112 489.219857 
L 717.427538 494.227887 
L 725.439963 498.945181 
L 733.452389 503.32365 
L 741.464815 507.295496 
L 749.477241 510.815969 
L 757.489667 513.887772 
L 765.502092 516.557889 
L 773.514518 518.891679 
L 781.526944 520.941065 
L 789.53937 522.726141 
L 797.551795 524.240844 
L 805.564221 525.478461 
L 813.576647 526.460697 
L 825.595286 527.605709 
L 845.62635 529.423444 
L 877.676053 532.73549 
L 885.688479 533.289859 
L 893.700905 533.667415 
L 905.719543 533.982961 
L 917.738182 534.172463 
L 917.738182 534.172463 
" clip-path="url(#pdc00ec5d1c)" style="fill: none; stroke: #fc4f30; stroke-width: 4"/>
   </g>
   <g id="line2d_28">
    <path d="M 120.501818 535.291771 
L 140.532883 534.910718 
L 160.563947 534.33275 
L 184.601224 533.40755 
L 224.663353 531.583979 
L 252.706843 530.13048 
L 272.737908 528.855338 
L 292.768972 527.322757 
L 336.837314 523.759998 
L 348.855952 523.018753 
L 360.874591 522.466788 
L 372.89323 522.122648 
L 384.911868 521.985079 
L 396.930507 522.03839 
L 412.955359 522.367711 
L 428.98021 522.947746 
L 445.005062 523.745718 
L 461.029913 524.737459 
L 481.060978 526.189277 
L 521.123106 529.184144 
L 537.147958 530.140048 
L 553.17281 530.865599 
L 569.197661 531.372749 
L 593.234938 531.867068 
L 629.290854 532.58458 
L 657.334344 533.421602 
L 701.402686 534.798441 
L 725.439963 535.276099 
L 749.477241 535.528655 
L 785.533157 535.656418 
L 893.700905 535.679995 
L 917.738182 535.68 
L 917.738182 535.68 
" clip-path="url(#pdc00ec5d1c)" style="fill: none; stroke: #008fd5; stroke-width: 4"/>
   </g>
   <g id="patch_3">
    <path d="M 80.64 535.68 
L 80.64 69.12 
" style="fill: none; stroke: #f0f0f0; stroke-width: 3; stroke-linejoin: miter; stroke-linecap: square"/>
   </g>
   <g id="patch_4">
    <path d="M 957.6 535.68 
L 957.6 69.12 
" style="fill: none; stroke: #f0f0f0; stroke-width: 3; stroke-linejoin: miter; stroke-linecap: square"/>
   </g>
   <g id="patch_5">
    <path d="M 80.64 535.68 
L 957.6 535.68 
" style="fill: none; stroke: #f0f0f0; stroke-width: 3; stroke-linejoin: miter; stroke-linecap: square"/>
   </g>
   <g id="patch_6">
    <path d="M 80.64 69.12 
L 957.6 69.12 
" style="fill: none; stroke: #f0f0f0; stroke-width: 3; stroke-linejoin: miter; stroke-linecap: square"/>
   </g>
   <g id="legend_1">
    <g id="patch_7">
     <path d="M 786.596562 224.165625 
L 947.8 224.165625 
Q 950.6 224.165625 950.6 221.365625 
L 950.6 78.92 
Q 950.6 76.12 947.8 76.12 
L 786.596562 76.12 
Q 783.796562 76.12 783.796562 78.92 
L 783.796562 221.365625 
Q 783.796562 224.165625 786.596562 224.165625 
z
" style="fill: #f0f0f0; opacity: 0.8; stroke: #cccccc; stroke-width: 0.5; stroke-linejoin: miter"/>
    </g>
    <g id="text_14">
     <!-- race -->
     <g transform="translate(851.874844 92.357813) scale(0.14 -0.14)">
      <defs>
       <path id="DejaVuSans-72" d="M 2631 2963 
Q 2534 3019 2420 3045 
Q 2306 3072 2169 3072 
Q 1681 3072 1420 2755 
Q 1159 2438 1159 1844 
L 1159 0 
L 581 0 
L 581 3500 
L 1159 3500 
L 1159 2956 
Q 1341 3275 1631 3429 
Q 1922 3584 2338 3584 
Q 2397 3584 2469 3576 
Q 2541 3569 2628 3553 
L 2631 2963 
z
" transform="scale(0.015625)"/>
       <path id="DejaVuSans-63" d="M 3122 3366 
L 3122 2828 
Q 2878 2963 2633 3030 
Q 2388 3097 2138 3097 
Q 1578 3097 1268 2742 
Q 959 2388 959 1747 
Q 959 1106 1268 751 
Q 1578 397 2138 397 
Q 2388 397 2633 464 
Q 2878 531 3122 666 
L 3122 134 
Q 2881 22 2623 -34 
Q 2366 -91 2075 -91 
Q 1284 -91 818 406 
Q 353 903 353 1747 
Q 353 2603 823 3093 
Q 1294 3584 2113 3584 
Q 2378 3584 2631 3529 
Q 2884 3475 3122 3366 
z
" transform="scale(0.015625)"/>
      </defs>
      <use xlink:href="#DejaVuSans-72"/>
      <use xlink:href="#DejaVuSans-61" x="41.113281"/>
      <use xlink:href="#DejaVuSans-63" x="102.392578"/>
      <use xlink:href="#DejaVuSans-65" x="157.373047"/>
     </g>
    </g>
    <g id="patch_8">
     <path d="M 789.396562 112.907188 
L 817.396562 112.907188 
L 817.396562 103.107188 
L 789.396562 103.107188 
z
" style="fill: #008fd5; fill-opacity: 0.25; stroke: #008fd5; stroke-width: 0.5; stroke-linejoin: miter"/>
    </g>
    <g id="text_15">
     <!-- Asian -->
     <g transform="translate(828.596562 112.907188) scale(0.14 -0.14)">
      <defs>
       <path id="DejaVuSans-41" d="M 2188 4044 
L 1331 1722 
L 3047 1722 
L 2188 4044 
z
M 1831 4666 
L 2547 4666 
L 4325 0 
L 3669 0 
L 3244 1197 
L 1141 1197 
L 716 0 
L 50 0 
L 1831 4666 
z
" transform="scale(0.015625)"/>
       <path id="DejaVuSans-73" d="M 2834 3397 
L 2834 2853 
Q 2591 2978 2328 3040 
Q 2066 3103 1784 3103 
Q 1356 3103 1142 2972 
Q 928 2841 928 2578 
Q 928 2378 1081 2264 
Q 1234 2150 1697 2047 
L 1894 2003 
Q 2506 1872 2764 1633 
Q 3022 1394 3022 966 
Q 3022 478 2636 193 
Q 2250 -91 1575 -91 
Q 1294 -91 989 -36 
Q 684 19 347 128 
L 347 722 
Q 666 556 975 473 
Q 1284 391 1588 391 
Q 1994 391 2212 530 
Q 2431 669 2431 922 
Q 2431 1156 2273 1281 
Q 2116 1406 1581 1522 
L 1381 1569 
Q 847 1681 609 1914 
Q 372 2147 372 2553 
Q 372 3047 722 3315 
Q 1072 3584 1716 3584 
Q 2034 3584 2315 3537 
Q 2597 3491 2834 3397 
z
" transform="scale(0.015625)"/>
       <path id="DejaVuSans-69" d="M 603 3500 
L 1178 3500 
L 1178 0 
L 603 0 
L 603 3500 
z
M 603 4863 
L 1178 4863 
L 1178 4134 
L 603 4134 
L 603 4863 
z
" transform="scale(0.015625)"/>
      </defs>
      <use xlink:href="#DejaVuSans-41"/>
      <use xlink:href="#DejaVuSans-73" x="68.408203"/>
      <use xlink:href="#DejaVuSans-69" x="120.507812"/>
      <use xlink:href="#DejaVuSans-61" x="148.291016"/>
      <use xlink:href="#DejaVuSans-6e" x="209.570312"/>
     </g>
    </g>
    <g id="patch_9">
     <path d="M 789.396562 133.456563 
L 817.396562 133.456563 
L 817.396562 123.656563 
L 789.396562 123.656563 
z
" style="fill: #fc4f30; fill-opacity: 0.25; stroke: #fc4f30; stroke-width: 0.5; stroke-linejoin: miter"/>
    </g>
    <g id="text_16">
     <!-- White -->
     <g transform="translate(828.596562 133.456563) scale(0.14 -0.14)">
      <defs>
       <path id="DejaVuSans-57" d="M 213 4666 
L 850 4666 
L 1831 722 
L 2809 4666 
L 3519 4666 
L 4500 722 
L 5478 4666 
L 6119 4666 
L 4947 0 
L 4153 0 
L 3169 4050 
L 2175 0 
L 1381 0 
L 213 4666 
z
" transform="scale(0.015625)"/>
       <path id="DejaVuSans-68" d="M 3513 2113 
L 3513 0 
L 2938 0 
L 2938 2094 
Q 2938 2591 2744 2837 
Q 2550 3084 2163 3084 
Q 1697 3084 1428 2787 
Q 1159 2491 1159 1978 
L 1159 0 
L 581 0 
L 581 4863 
L 1159 4863 
L 1159 2956 
Q 1366 3272 1645 3428 
Q 1925 3584 2291 3584 
Q 2894 3584 3203 3211 
Q 3513 2838 3513 2113 
z
" transform="scale(0.015625)"/>
      </defs>
      <use xlink:href="#DejaVuSans-57"/>
      <use xlink:href="#DejaVuSans-68" x="98.876953"/>
      <use xlink:href="#DejaVuSans-69" x="162.255859"/>
      <use xlink:href="#DejaVuSans-74" x="190.039062"/>
      <use xlink:href="#DejaVuSans-65" x="229.248047"/>
     </g>
    </g>
    <g id="patch_10">
     <path d="M 789.396562 154.005938 
L 817.396562 154.005938 
L 817.396562 144.205938 
L 789.396562 144.205938 
z
" style="fill: #e5ae38; fill-opacity: 0.25; stroke: #e5ae38; stroke-width: 0.5; stroke-linejoin: miter"/>
    </g>
    <g id="text_17">
     <!-- Hispanic -->
     <g transform="translate(828.596562 154.005938) scale(0.14 -0.14)">
      <defs>
       <path id="DejaVuSans-48" d="M 628 4666 
L 1259 4666 
L 1259 2753 
L 3553 2753 
L 3553 4666 
L 4184 4666 
L 4184 0 
L 3553 0 
L 3553 2222 
L 1259 2222 
L 1259 0 
L 628 0 
L 628 4666 
z
" transform="scale(0.015625)"/>
       <path id="DejaVuSans-70" d="M 1159 525 
L 1159 -1331 
L 581 -1331 
L 581 3500 
L 1159 3500 
L 1159 2969 
Q 1341 3281 1617 3432 
Q 1894 3584 2278 3584 
Q 2916 3584 3314 3078 
Q 3713 2572 3713 1747 
Q 3713 922 3314 415 
Q 2916 -91 2278 -91 
Q 1894 -91 1617 61 
Q 1341 213 1159 525 
z
M 3116 1747 
Q 3116 2381 2855 2742 
Q 2594 3103 2138 3103 
Q 1681 3103 1420 2742 
Q 1159 2381 1159 1747 
Q 1159 1113 1420 752 
Q 1681 391 2138 391 
Q 2594 391 2855 752 
Q 3116 1113 3116 1747 
z
" transform="scale(0.015625)"/>
      </defs>
      <use xlink:href="#DejaVuSans-48"/>
      <use xlink:href="#DejaVuSans-69" x="75.195312"/>
      <use xlink:href="#DejaVuSans-73" x="102.978516"/>
      <use xlink:href="#DejaVuSans-70" x="155.078125"/>
      <use xlink:href="#DejaVuSans-61" x="218.554688"/>
      <use xlink:href="#DejaVuSans-6e" x="279.833984"/>
      <use xlink:href="#DejaVuSans-69" x="343.212891"/>
      <use xlink:href="#DejaVuSans-63" x="370.996094"/>
     </g>
    </g>
    <g id="patch_11">
     <path d="M 789.396562 174.555313 
L 817.396562 174.555313 
L 817.396562 164.755313 
L 789.396562 164.755313 
z
" style="fill: #6d904f; fill-opacity: 0.25; stroke: #6d904f; stroke-width: 0.5; stroke-linejoin: miter"/>
    </g>
    <g id="text_18">
     <!-- black -->
     <g transform="translate(828.596562 174.555313) scale(0.14 -0.14)">
      <defs>
       <path id="DejaVuSans-62" d="M 3116 1747 
Q 3116 2381 2855 2742 
Q 2594 3103 2138 3103 
Q 1681 3103 1420 2742 
Q 1159 2381 1159 1747 
Q 1159 1113 1420 752 
Q 1681 391 2138 391 
Q 2594 391 2855 752 
Q 3116 1113 3116 1747 
z
M 1159 2969 
Q 1341 3281 1617 3432 
Q 1894 3584 2278 3584 
Q 2916 3584 3314 3078 
Q 3713 2572 3713 1747 
Q 3713 922 3314 415 
Q 2916 -91 2278 -91 
Q 1894 -91 1617 61 
Q 1341 213 1159 525 
L 1159 0 
L 581 0 
L 581 4863 
L 1159 4863 
L 1159 2969 
z
" transform="scale(0.015625)"/>
       <path id="DejaVuSans-6c" d="M 603 4863 
L 1178 4863 
L 1178 0 
L 603 0 
L 603 4863 
z
" transform="scale(0.015625)"/>
       <path id="DejaVuSans-6b" d="M 581 4863 
L 1159 4863 
L 1159 1991 
L 2875 3500 
L 3609 3500 
L 1753 1863 
L 3688 0 
L 2938 0 
L 1159 1709 
L 1159 0 
L 581 0 
L 581 4863 
z
" transform="scale(0.015625)"/>
      </defs>
      <use xlink:href="#DejaVuSans-62"/>
      <use xlink:href="#DejaVuSans-6c" x="63.476562"/>
      <use xlink:href="#DejaVuSans-61" x="91.259766"/>
      <use xlink:href="#DejaVuSans-63" x="152.539062"/>
      <use xlink:href="#DejaVuSans-6b" x="207.519531"/>
     </g>
    </g>
    <g id="patch_12">
     <path d="M 789.396562 195.104688 
L 817.396562 195.104688 
L 817.396562 185.304688 
L 789.396562 185.304688 
z
" style="fill: #8b8b8b; fill-opacity: 0.25; stroke: #8b8b8b; stroke-width: 0.5; stroke-linejoin: miter"/>
    </g>
    <g id="text_19">
     <!-- Other -->
     <g transform="translate(828.596562 195.104688) scale(0.14 -0.14)">
      <defs>
       <path id="DejaVuSans-4f" d="M 2522 4238 
Q 1834 4238 1429 3725 
Q 1025 3213 1025 2328 
Q 1025 1447 1429 934 
Q 1834 422 2522 422 
Q 3209 422 3611 934 
Q 4013 1447 4013 2328 
Q 4013 3213 3611 3725 
Q 3209 4238 2522 4238 
z
M 2522 4750 
Q 3503 4750 4090 4092 
Q 4678 3434 4678 2328 
Q 4678 1225 4090 567 
Q 3503 -91 2522 -91 
Q 1538 -91 948 565 
Q 359 1222 359 2328 
Q 359 3434 948 4092 
Q 1538 4750 2522 4750 
z
" transform="scale(0.015625)"/>
      </defs>
      <use xlink:href="#DejaVuSans-4f"/>
      <use xlink:href="#DejaVuSans-74" x="78.710938"/>
      <use xlink:href="#DejaVuSans-68" x="117.919922"/>
      <use xlink:href="#DejaVuSans-65" x="181.298828"/>
      <use xlink:href="#DejaVuSans-72" x="242.822266"/>
     </g>
    </g>
    <g id="patch_13">
     <path d="M 789.396562 215.654063 
L 817.396562 215.654063 
L 817.396562 205.854062 
L 789.396562 205.854062 
z
" style="fill: #810f7c; fill-opacity: 0.25; stroke: #810f7c; stroke-width: 0.5; stroke-linejoin: miter"/>
    </g>
    <g id="text_20">
     <!-- Native American -->
     <g transform="translate(828.596562 215.654063) scale(0.14 -0.14)">
      <defs>
       <path id="DejaVuSans-4e" d="M 628 4666 
L 1478 4666 
L 3547 763 
L 3547 4666 
L 4159 4666 
L 4159 0 
L 3309 0 
L 1241 3903 
L 1241 0 
L 628 0 
L 628 4666 
z
" transform="scale(0.015625)"/>
       <path id="DejaVuSans-76" d="M 191 3500 
L 800 3500 
L 1894 563 
L 2988 3500 
L 3597 3500 
L 2284 0 
L 1503 0 
L 191 3500 
z
" transform="scale(0.015625)"/>
       <path id="DejaVuSans-20" transform="scale(0.015625)"/>
       <path id="DejaVuSans-6d" d="M 3328 2828 
Q 3544 3216 3844 3400 
Q 4144 3584 4550 3584 
Q 5097 3584 5394 3201 
Q 5691 2819 5691 2113 
L 5691 0 
L 5113 0 
L 5113 2094 
Q 5113 2597 4934 2840 
Q 4756 3084 4391 3084 
Q 3944 3084 3684 2787 
Q 3425 2491 3425 1978 
L 3425 0 
L 2847 0 
L 2847 2094 
Q 2847 2600 2669 2842 
Q 2491 3084 2119 3084 
Q 1678 3084 1418 2786 
Q 1159 2488 1159 1978 
L 1159 0 
L 581 0 
L 581 3500 
L 1159 3500 
L 1159 2956 
Q 1356 3278 1631 3431 
Q 1906 3584 2284 3584 
Q 2666 3584 2933 3390 
Q 3200 3197 3328 2828 
z
" transform="scale(0.015625)"/>
      </defs>
      <use xlink:href="#DejaVuSans-4e"/>
      <use xlink:href="#DejaVuSans-61" x="74.804688"/>
      <use xlink:href="#DejaVuSans-74" x="136.083984"/>
      <use xlink:href="#DejaVuSans-69" x="175.292969"/>
      <use xlink:href="#DejaVuSans-76" x="203.076172"/>
      <use xlink:href="#DejaVuSans-65" x="262.255859"/>
      <use xlink:href="#DejaVuSans-20" x="323.779297"/>
      <use xlink:href="#DejaVuSans-41" x="355.566406"/>
      <use xlink:href="#DejaVuSans-6d" x="423.974609"/>
      <use xlink:href="#DejaVuSans-65" x="521.386719"/>
      <use xlink:href="#DejaVuSans-72" x="582.910156"/>
      <use xlink:href="#DejaVuSans-69" x="624.023438"/>
      <use xlink:href="#DejaVuSans-63" x="651.806641"/>
      <use xlink:href="#DejaVuSans-61" x="706.787109"/>
      <use xlink:href="#DejaVuSans-6e" x="768.066406"/>
     </g>
    </g>
   </g>
  </g>
  <g id="text_21">
   <!-- Age distribution of the People Killed by Police per Race -->
   <g transform="translate(273.864937 24.285375) scale(0.168 -0.168)">
    <defs>
     <path id="DejaVuSans-64" d="M 2906 2969 
L 2906 4863 
L 3481 4863 
L 3481 0 
L 2906 0 
L 2906 525 
Q 2725 213 2448 61 
Q 2172 -91 1784 -91 
Q 1150 -91 751 415 
Q 353 922 353 1747 
Q 353 2572 751 3078 
Q 1150 3584 1784 3584 
Q 2172 3584 2448 3432 
Q 2725 3281 2906 2969 
z
M 947 1747 
Q 947 1113 1208 752 
Q 1469 391 1925 391 
Q 2381 391 2643 752 
Q 2906 1113 2906 1747 
Q 2906 2381 2643 2742 
Q 2381 3103 1925 3103 
Q 1469 3103 1208 2742 
Q 947 2381 947 1747 
z
" transform="scale(0.015625)"/>
     <path id="DejaVuSans-66" d="M 2375 4863 
L 2375 4384 
L 1825 4384 
Q 1516 4384 1395 4259 
Q 1275 4134 1275 3809 
L 1275 3500 
L 2222 3500 
L 2222 3053 
L 1275 3053 
L 1275 0 
L 697 0 
L 697 3053 
L 147 3053 
L 147 3500 
L 697 3500 
L 697 3744 
Q 697 4328 969 4595 
Q 1241 4863 1831 4863 
L 2375 4863 
z
" transform="scale(0.015625)"/>
     <path id="DejaVuSans-50" d="M 1259 4147 
L 1259 2394 
L 2053 2394 
Q 2494 2394 2734 2622 
Q 2975 2850 2975 3272 
Q 2975 3691 2734 3919 
Q 2494 4147 2053 4147 
L 1259 4147 
z
M 628 4666 
L 2053 4666 
Q 2838 4666 3239 4311 
Q 3641 3956 3641 3272 
Q 3641 2581 3239 2228 
Q 2838 1875 2053 1875 
L 1259 1875 
L 1259 0 
L 628 0 
L 628 4666 
z
" transform="scale(0.015625)"/>
     <path id="DejaVuSans-4b" d="M 628 4666 
L 1259 4666 
L 1259 2694 
L 3353 4666 
L 4166 4666 
L 1850 2491 
L 4331 0 
L 3500 0 
L 1259 2247 
L 1259 0 
L 628 0 
L 628 4666 
z
" transform="scale(0.015625)"/>
     <path id="DejaVuSans-79" d="M 2059 -325 
Q 1816 -950 1584 -1140 
Q 1353 -1331 966 -1331 
L 506 -1331 
L 506 -850 
L 844 -850 
Q 1081 -850 1212 -737 
Q 1344 -625 1503 -206 
L 1606 56 
L 191 3500 
L 800 3500 
L 1894 763 
L 2988 3500 
L 3597 3500 
L 2059 -325 
z
" transform="scale(0.015625)"/>
     <path id="DejaVuSans-52" d="M 2841 2188 
Q 3044 2119 3236 1894 
Q 3428 1669 3622 1275 
L 4263 0 
L 3584 0 
L 2988 1197 
Q 2756 1666 2539 1819 
Q 2322 1972 1947 1972 
L 1259 1972 
L 1259 0 
L 628 0 
L 628 4666 
L 2053 4666 
Q 2853 4666 3247 4331 
Q 3641 3997 3641 3322 
Q 3641 2881 3436 2590 
Q 3231 2300 2841 2188 
z
M 1259 4147 
L 1259 2491 
L 2053 2491 
Q 2509 2491 2742 2702 
Q 2975 2913 2975 3322 
Q 2975 3731 2742 3939 
Q 2509 4147 2053 4147 
L 1259 4147 
z
" transform="scale(0.015625)"/>
    </defs>
    <use xlink:href="#DejaVuSans-41"/>
    <use xlink:href="#DejaVuSans-67" x="68.408203"/>
    <use xlink:href="#DejaVuSans-65" x="131.884766"/>
    <use xlink:href="#DejaVuSans-20" x="193.408203"/>
    <use xlink:href="#DejaVuSans-64" x="225.195312"/>
    <use xlink:href="#DejaVuSans-69" x="288.671875"/>
    <use xlink:href="#DejaVuSans-73" x="316.455078"/>
    <use xlink:href="#DejaVuSans-74" x="368.554688"/>
    <use xlink:href="#DejaVuSans-72" x="407.763672"/>
    <use xlink:href="#DejaVuSans-69" x="448.876953"/>
    <use xlink:href="#DejaVuSans-62" x="476.660156"/>
    <use xlink:href="#DejaVuSans-75" x="540.136719"/>
    <use xlink:href="#DejaVuSans-74" x="603.515625"/>
    <use xlink:href="#DejaVuSans-69" x="642.724609"/>
    <use xlink:href="#DejaVuSans-6f" x="670.507812"/>
    <use xlink:href="#DejaVuSans-6e" x="731.689453"/>
    <use xlink:href="#DejaVuSans-20" x="795.068359"/>
    <use xlink:href="#DejaVuSans-6f" x="826.855469"/>
    <use xlink:href="#DejaVuSans-66" x="888.037109"/>
    <use xlink:href="#DejaVuSans-20" x="923.242188"/>
    <use xlink:href="#DejaVuSans-74" x="955.029297"/>
    <use xlink:href="#DejaVuSans-68" x="994.238281"/>
    <use xlink:href="#DejaVuSans-65" x="1057.617188"/>
    <use xlink:href="#DejaVuSans-20" x="1119.140625"/>
    <use xlink:href="#DejaVuSans-50" x="1150.927734"/>
    <use xlink:href="#DejaVuSans-65" x="1207.605469"/>
    <use xlink:href="#DejaVuSans-6f" x="1269.128906"/>
    <use xlink:href="#DejaVuSans-70" x="1330.310547"/>
    <use xlink:href="#DejaVuSans-6c" x="1393.787109"/>
    <use xlink:href="#DejaVuSans-65" x="1421.570312"/>
    <use xlink:href="#DejaVuSans-20" x="1483.09375"/>
    <use xlink:href="#DejaVuSans-4b" x="1514.880859"/>
    <use xlink:href="#DejaVuSans-69" x="1580.457031"/>
    <use xlink:href="#DejaVuSans-6c" x="1608.240234"/>
    <use xlink:href="#DejaVuSans-6c" x="1636.023438"/>
    <use xlink:href="#DejaVuSans-65" x="1663.806641"/>
    <use xlink:href="#DejaVuSans-64" x="1725.330078"/>
    <use xlink:href="#DejaVuSans-20" x="1788.806641"/>
    <use xlink:href="#DejaVuSans-62" x="1820.59375"/>
    <use xlink:href="#DejaVuSans-79" x="1884.070312"/>
    <use xlink:href="#DejaVuSans-20" x="1943.25"/>
    <use xlink:href="#DejaVuSans-50" x="1975.037109"/>
    <use xlink:href="#DejaVuSans-6f" x="2031.714844"/>
    <use xlink:href="#DejaVuSans-6c" x="2092.896484"/>
    <use xlink:href="#DejaVuSans-69" x="2120.679688"/>
    <use xlink:href="#DejaVuSans-63" x="2148.462891"/>
    <use xlink:href="#DejaVuSans-65" x="2203.443359"/>
    <use xlink:href="#DejaVuSans-20" x="2264.966797"/>
    <use xlink:href="#DejaVuSans-70" x="2296.753906"/>
    <use xlink:href="#DejaVuSans-65" x="2360.230469"/>
    <use xlink:href="#DejaVuSans-72" x="2421.753906"/>
    <use xlink:href="#DejaVuSans-20" x="2462.867188"/>
    <use xlink:href="#DejaVuSans-52" x="2494.654297"/>
    <use xlink:href="#DejaVuSans-61" x="2561.886719"/>
    <use xlink:href="#DejaVuSans-63" x="2623.166016"/>
    <use xlink:href="#DejaVuSans-65" x="2678.146484"/>
   </g>
  </g>
 </g>
 <defs>
  <clipPath id="pdc00ec5d1c">
   <rect x="80.64" y="69.12" width="876.96" height="466.56"/>
  </clipPath>
 </defs>
</svg>
