<?xml version="1.0" encoding="utf-8" standalone="no"?>
<!DOCTYPE svg PUBLIC "-//W3C//DTD SVG 1.1//EN"
  "http://www.w3.org/Graphics/SVG/1.1/DTD/svg11.dtd">
<svg xmlns:xlink="http://www.w3.org/1999/xlink" width="1152pt" height="360pt" viewBox="0 0 1152 360" xmlns="http://www.w3.org/2000/svg" version="1.1">
 <metadata>
  <rdf:RDF xmlns:dc="http://purl.org/dc/elements/1.1/" xmlns:cc="http://creativecommons.org/ns#" xmlns:rdf="http://www.w3.org/1999/02/22-rdf-syntax-ns#">
   <cc:Work>
    <dc:type rdf:resource="http://purl.org/dc/dcmitype/StillImage"/>
    <dc:date>2024-05-18T14:57:07.909461</dc:date>
    <dc:format>image/svg+xml</dc:format>
    <dc:creator>
     <cc:Agent>
      <dc:title>Matplotlib v3.8.4, https://matplotlib.org/</dc:title>
     </cc:Agent>
    </dc:creator>
   </cc:Work>
  </rdf:RDF>
 </metadata>
 <defs>
  <style type="text/css">*{stroke-linejoin: round; stroke-linecap: butt}</style>
 </defs>
 <g id="figure_1">
  <g id="patch_1">
   <path d="M 0 360 
L 1152 360 
L 1152 0 
L 0 0 
z
" style="fill: #f0f0f0"/>
  </g>
  <g id="axes_1">
   <g id="patch_2">
    <path d="M 92.16 334.8 
L 1094.4 334.8 
L 1094.4 43.2 
L 92.16 43.2 
z
" style="fill: #f0f0f0"/>
   </g>
   <g id="matplotlib.axis_1">
    <g id="xtick_1">
     <g id="line2d_1">
      <path d="M 137.716364 334.8 
L 137.716364 43.2 
" clip-path="url(#p3282c26a67)" style="fill: none; stroke: #cbcbcb"/>
     </g>
     <g id="line2d_2"/>
     <g id="text_1">
      <!-- AK -->
      <g transform="translate(135.817764 356.700371) rotate(-55) scale(0.12 -0.12)">
       <defs>
        <path id="DejaVuSans-41" d="M 2188 4044 
L 1331 1722 
L 3047 1722 
L 2188 4044 
z
M 1831 4666 
L 2547 4666 
L 4325 0 
L 3669 0 
L 3244 1197 
L 1141 1197 
L 716 0 
L 50 0 
L 1831 4666 
z
" transform="scale(0.015625)"/>
        <path id="DejaVuSans-4b" d="M 628 4666 
L 1259 4666 
L 1259 2694 
L 3353 4666 
L 4166 4666 
L 1850 2491 
L 4331 0 
L 3500 0 
L 1259 2247 
L 1259 0 
L 628 0 
L 628 4666 
z
" transform="scale(0.015625)"/>
       </defs>
       <use xlink:href="#DejaVuSans-41"/>
       <use xlink:href="#DejaVuSans-4b" x="68.408203"/>
      </g>
     </g>
    </g>
    <g id="xtick_2">
     <g id="line2d_3">
      <path d="M 155.938909 334.8 
L 155.938909 43.2 
" clip-path="url(#p3282c26a67)" style="fill: none; stroke: #cbcbcb"/>
     </g>
     <g id="line2d_4"/>
     <g id="text_2">
      <!-- AL -->
      <g transform="translate(154.379616 355.731211) rotate(-55) scale(0.12 -0.12)">
       <defs>
        <path id="DejaVuSans-4c" d="M 628 4666 
L 1259 4666 
L 1259 531 
L 3531 531 
L 3531 0 
L 628 0 
L 628 4666 
z
" transform="scale(0.015625)"/>
       </defs>
       <use xlink:href="#DejaVuSans-41"/>
       <use xlink:href="#DejaVuSans-4c" x="68.408203"/>
      </g>
     </g>
    </g>
    <g id="xtick_3">
     <g id="line2d_5">
      <path d="M 174.161455 334.8 
L 174.161455 43.2 
" clip-path="url(#p3282c26a67)" style="fill: none; stroke: #cbcbcb"/>
     </g>
     <g id="line2d_6"/>
     <g id="text_3">
      <!-- AR -->
      <g transform="translate(172.128423 357.084348) rotate(-55) scale(0.12 -0.12)">
       <defs>
        <path id="DejaVuSans-52" d="M 2841 2188 
Q 3044 2119 3236 1894 
Q 3428 1669 3622 1275 
L 4263 0 
L 3584 0 
L 2988 1197 
Q 2756 1666 2539 1819 
Q 2322 1972 1947 1972 
L 1259 1972 
L 1259 0 
L 628 0 
L 628 4666 
L 2053 4666 
Q 2853 4666 3247 4331 
Q 3641 3997 3641 3322 
Q 3641 2881 3436 2590 
Q 3231 2300 2841 2188 
z
M 1259 4147 
L 1259 2491 
L 2053 2491 
Q 2509 2491 2742 2702 
Q 2975 2913 2975 3322 
Q 2975 3731 2742 3939 
Q 2509 4147 2053 4147 
L 1259 4147 
z
" transform="scale(0.015625)"/>
       </defs>
       <use xlink:href="#DejaVuSans-41"/>
       <use xlink:href="#DejaVuSans-52" x="68.408203"/>
      </g>
     </g>
    </g>
    <g id="xtick_4">
     <g id="line2d_7">
      <path d="M 192.384 334.8 
L 192.384 43.2 
" clip-path="url(#p3282c26a67)" style="fill: none; stroke: #cbcbcb"/>
     </g>
     <g id="line2d_8"/>
     <g id="text_4">
      <!-- AZ -->
      <g transform="translate(190.384845 356.987586) rotate(-55) scale(0.12 -0.12)">
       <defs>
        <path id="DejaVuSans-5a" d="M 359 4666 
L 4025 4666 
L 4025 4184 
L 1075 531 
L 4097 531 
L 4097 0 
L 288 0 
L 288 481 
L 3238 4134 
L 359 4134 
L 359 4666 
z
" transform="scale(0.015625)"/>
       </defs>
       <use xlink:href="#DejaVuSans-41"/>
       <use xlink:href="#DejaVuSans-5a" x="68.408203"/>
      </g>
     </g>
    </g>
    <g id="xtick_5">
     <g id="line2d_9">
      <path d="M 210.606545 334.8 
L 210.606545 43.2 
" clip-path="url(#p3282c26a67)" style="fill: none; stroke: #cbcbcb"/>
     </g>
     <g id="line2d_10"/>
     <g id="text_5">
      <!-- CA -->
      <g transform="translate(208.561684 357.118138) rotate(-55) scale(0.12 -0.12)">
       <defs>
        <path id="DejaVuSans-43" d="M 4122 4306 
L 4122 3641 
Q 3803 3938 3442 4084 
Q 3081 4231 2675 4231 
Q 1875 4231 1450 3742 
Q 1025 3253 1025 2328 
Q 1025 1406 1450 917 
Q 1875 428 2675 428 
Q 3081 428 3442 575 
Q 3803 722 4122 1019 
L 4122 359 
Q 3791 134 3420 21 
Q 3050 -91 2638 -91 
Q 1578 -91 968 557 
Q 359 1206 359 2328 
Q 359 3453 968 4101 
Q 1578 4750 2638 4750 
Q 3056 4750 3426 4639 
Q 3797 4528 4122 4306 
z
" transform="scale(0.015625)"/>
       </defs>
       <use xlink:href="#DejaVuSans-43"/>
       <use xlink:href="#DejaVuSans-41" x="69.824219"/>
      </g>
     </g>
    </g>
    <g id="xtick_6">
     <g id="line2d_11">
      <path d="M 228.829091 334.8 
L 228.829091 43.2 
" clip-path="url(#p3282c26a67)" style="fill: none; stroke: #cbcbcb"/>
     </g>
     <g id="line2d_12"/>
     <g id="text_6">
      <!-- CO -->
      <g transform="translate(226.429329 358.131839) rotate(-55) scale(0.12 -0.12)">
       <defs>
        <path id="DejaVuSans-4f" d="M 2522 4238 
Q 1834 4238 1429 3725 
Q 1025 3213 1025 2328 
Q 1025 1447 1429 934 
Q 1834 422 2522 422 
Q 3209 422 3611 934 
Q 4013 1447 4013 2328 
Q 4013 3213 3611 3725 
Q 3209 4238 2522 4238 
z
M 2522 4750 
Q 3503 4750 4090 4092 
Q 4678 3434 4678 2328 
Q 4678 1225 4090 567 
Q 3503 -91 2522 -91 
Q 1538 -91 948 565 
Q 359 1222 359 2328 
Q 359 3434 948 4092 
Q 1538 4750 2522 4750 
z
" transform="scale(0.015625)"/>
       </defs>
       <use xlink:href="#DejaVuSans-43"/>
       <use xlink:href="#DejaVuSans-4f" x="69.824219"/>
      </g>
     </g>
    </g>
    <g id="xtick_7">
     <g id="line2d_13">
      <path d="M 247.051636 334.8 
L 247.051636 43.2 
" clip-path="url(#p3282c26a67)" style="fill: none; stroke: #cbcbcb"/>
     </g>
     <g id="line2d_14"/>
     <g id="text_7">
      <!-- CT -->
      <g transform="translate(245.258969 356.397796) rotate(-55) scale(0.12 -0.12)">
       <defs>
        <path id="DejaVuSans-54" d="M -19 4666 
L 3928 4666 
L 3928 4134 
L 2272 4134 
L 2272 0 
L 1638 0 
L 1638 4134 
L -19 4134 
L -19 4666 
z
" transform="scale(0.015625)"/>
       </defs>
       <use xlink:href="#DejaVuSans-43"/>
       <use xlink:href="#DejaVuSans-54" x="69.824219"/>
      </g>
     </g>
    </g>
    <g id="xtick_8">
     <g id="line2d_15">
      <path d="M 265.274182 334.8 
L 265.274182 43.2 
" clip-path="url(#p3282c26a67)" style="fill: none; stroke: #cbcbcb"/>
     </g>
     <g id="line2d_16"/>
     <g id="text_8">
      <!-- DC -->
      <g transform="translate(262.93357 357.962889) rotate(-55) scale(0.12 -0.12)">
       <defs>
        <path id="DejaVuSans-44" d="M 1259 4147 
L 1259 519 
L 2022 519 
Q 2988 519 3436 956 
Q 3884 1394 3884 2338 
Q 3884 3275 3436 3711 
Q 2988 4147 2022 4147 
L 1259 4147 
z
M 628 4666 
L 1925 4666 
Q 3281 4666 3915 4102 
Q 4550 3538 4550 2338 
Q 4550 1131 3912 565 
Q 3275 0 1925 0 
L 628 0 
L 628 4666 
z
" transform="scale(0.015625)"/>
       </defs>
       <use xlink:href="#DejaVuSans-44"/>
       <use xlink:href="#DejaVuSans-43" x="77.001953"/>
      </g>
     </g>
    </g>
    <g id="xtick_9">
     <g id="line2d_17">
      <path d="M 283.496727 334.8 
L 283.496727 43.2 
" clip-path="url(#p3282c26a67)" style="fill: none; stroke: #cbcbcb"/>
     </g>
     <g id="line2d_18"/>
     <g id="text_9">
      <!-- DE -->
      <g transform="translate(281.38465 357.310127) rotate(-55) scale(0.12 -0.12)">
       <defs>
        <path id="DejaVuSans-45" d="M 628 4666 
L 3578 4666 
L 3578 4134 
L 1259 4134 
L 1259 2753 
L 3481 2753 
L 3481 2222 
L 1259 2222 
L 1259 531 
L 3634 531 
L 3634 0 
L 628 0 
L 628 4666 
z
" transform="scale(0.015625)"/>
       </defs>
       <use xlink:href="#DejaVuSans-44"/>
       <use xlink:href="#DejaVuSans-45" x="77.001953"/>
      </g>
     </g>
    </g>
    <g id="xtick_10">
     <g id="line2d_19">
      <path d="M 301.719273 334.8 
L 301.719273 43.2 
" clip-path="url(#p3282c26a67)" style="fill: none; stroke: #cbcbcb"/>
     </g>
     <g id="line2d_20"/>
     <g id="text_10">
      <!-- FL -->
      <g transform="translate(300.534776 354.660682) rotate(-55) scale(0.12 -0.12)">
       <defs>
        <path id="DejaVuSans-46" d="M 628 4666 
L 3309 4666 
L 3309 4134 
L 1259 4134 
L 1259 2759 
L 3109 2759 
L 3109 2228 
L 1259 2228 
L 1259 0 
L 628 0 
L 628 4666 
z
" transform="scale(0.015625)"/>
       </defs>
       <use xlink:href="#DejaVuSans-46"/>
       <use xlink:href="#DejaVuSans-4c" x="57.519531"/>
      </g>
     </g>
    </g>
    <g id="xtick_11">
     <g id="line2d_21">
      <path d="M 319.941818 334.8 
L 319.941818 43.2 
" clip-path="url(#p3282c26a67)" style="fill: none; stroke: #cbcbcb"/>
     </g>
     <g id="line2d_22"/>
     <g id="text_11">
      <!-- GA -->
      <g transform="translate(317.63347 357.870734) rotate(-55) scale(0.12 -0.12)">
       <defs>
        <path id="DejaVuSans-47" d="M 3809 666 
L 3809 1919 
L 2778 1919 
L 2778 2438 
L 4434 2438 
L 4434 434 
Q 4069 175 3628 42 
Q 3188 -91 2688 -91 
Q 1594 -91 976 548 
Q 359 1188 359 2328 
Q 359 3472 976 4111 
Q 1594 4750 2688 4750 
Q 3144 4750 3555 4637 
Q 3966 4525 4313 4306 
L 4313 3634 
Q 3963 3931 3569 4081 
Q 3175 4231 2741 4231 
Q 1884 4231 1454 3753 
Q 1025 3275 1025 2328 
Q 1025 1384 1454 906 
Q 1884 428 2741 428 
Q 3075 428 3337 486 
Q 3600 544 3809 666 
z
" transform="scale(0.015625)"/>
       </defs>
       <use xlink:href="#DejaVuSans-47"/>
       <use xlink:href="#DejaVuSans-41" x="77.490234"/>
      </g>
     </g>
    </g>
    <g id="xtick_12">
     <g id="line2d_23">
      <path d="M 338.164364 334.8 
L 338.164364 43.2 
" clip-path="url(#p3282c26a67)" style="fill: none; stroke: #cbcbcb"/>
     </g>
     <g id="line2d_24"/>
     <g id="text_12">
      <!-- HI -->
      <g transform="translate(337.273466 353.822075) rotate(-55) scale(0.12 -0.12)">
       <defs>
        <path id="DejaVuSans-48" d="M 628 4666 
L 1259 4666 
L 1259 2753 
L 3553 2753 
L 3553 4666 
L 4184 4666 
L 4184 0 
L 3553 0 
L 3553 2222 
L 1259 2222 
L 1259 0 
L 628 0 
L 628 4666 
z
" transform="scale(0.015625)"/>
        <path id="DejaVuSans-49" d="M 628 4666 
L 1259 4666 
L 1259 0 
L 628 0 
L 628 4666 
z
" transform="scale(0.015625)"/>
       </defs>
       <use xlink:href="#DejaVuSans-48"/>
       <use xlink:href="#DejaVuSans-49" x="75.195312"/>
      </g>
     </g>
    </g>
    <g id="xtick_13">
     <g id="line2d_25">
      <path d="M 356.386909 334.8 
L 356.386909 43.2 
" clip-path="url(#p3282c26a67)" style="fill: none; stroke: #cbcbcb"/>
     </g>
     <g id="line2d_26"/>
     <g id="text_13">
      <!-- IA -->
      <g transform="translate(355.729923 353.153954) rotate(-55) scale(0.12 -0.12)">
       <use xlink:href="#DejaVuSans-49"/>
       <use xlink:href="#DejaVuSans-41" x="29.492188"/>
      </g>
     </g>
    </g>
    <g id="xtick_14">
     <g id="line2d_27">
      <path d="M 374.609455 334.8 
L 374.609455 43.2 
" clip-path="url(#p3282c26a67)" style="fill: none; stroke: #cbcbcb"/>
     </g>
     <g id="line2d_28"/>
     <g id="text_14">
      <!-- ID -->
      <g transform="translate(373.656718 353.998705) rotate(-55) scale(0.12 -0.12)">
       <use xlink:href="#DejaVuSans-49"/>
       <use xlink:href="#DejaVuSans-44" x="29.492188"/>
      </g>
     </g>
    </g>
    <g id="xtick_15">
     <g id="line2d_29">
      <path d="M 392.832 334.8 
L 392.832 43.2 
" clip-path="url(#p3282c26a67)" style="fill: none; stroke: #cbcbcb"/>
     </g>
     <g id="line2d_30"/>
     <g id="text_15">
      <!-- IL -->
      <g transform="translate(392.611649 351.906795) rotate(-55) scale(0.12 -0.12)">
       <use xlink:href="#DejaVuSans-49"/>
       <use xlink:href="#DejaVuSans-4c" x="29.492188"/>
      </g>
     </g>
    </g>
    <g id="xtick_16">
     <g id="line2d_31">
      <path d="M 411.054545 334.8 
L 411.054545 43.2 
" clip-path="url(#p3282c26a67)" style="fill: none; stroke: #cbcbcb"/>
     </g>
     <g id="line2d_32"/>
     <g id="text_16">
      <!-- IN -->
      <g transform="translate(410.177091 353.783677) rotate(-55) scale(0.12 -0.12)">
       <defs>
        <path id="DejaVuSans-4e" d="M 628 4666 
L 1478 4666 
L 3547 763 
L 3547 4666 
L 4159 4666 
L 4159 0 
L 3309 0 
L 1241 3903 
L 1241 0 
L 628 0 
L 628 4666 
z
" transform="scale(0.015625)"/>
       </defs>
       <use xlink:href="#DejaVuSans-49"/>
       <use xlink:href="#DejaVuSans-4e" x="29.492188"/>
      </g>
     </g>
    </g>
    <g id="xtick_17">
     <g id="line2d_33">
      <path d="M 429.277091 334.8 
L 429.277091 43.2 
" clip-path="url(#p3282c26a67)" style="fill: none; stroke: #cbcbcb"/>
     </g>
     <g id="line2d_34"/>
     <g id="text_17">
      <!-- KS -->
      <g transform="translate(427.547876 356.216559) rotate(-55) scale(0.12 -0.12)">
       <defs>
        <path id="DejaVuSans-53" d="M 3425 4513 
L 3425 3897 
Q 3066 4069 2747 4153 
Q 2428 4238 2131 4238 
Q 1616 4238 1336 4038 
Q 1056 3838 1056 3469 
Q 1056 3159 1242 3001 
Q 1428 2844 1947 2747 
L 2328 2669 
Q 3034 2534 3370 2195 
Q 3706 1856 3706 1288 
Q 3706 609 3251 259 
Q 2797 -91 1919 -91 
Q 1588 -91 1214 -16 
Q 841 59 441 206 
L 441 856 
Q 825 641 1194 531 
Q 1563 422 1919 422 
Q 2459 422 2753 634 
Q 3047 847 3047 1241 
Q 3047 1584 2836 1778 
Q 2625 1972 2144 2069 
L 1759 2144 
Q 1053 2284 737 2584 
Q 422 2884 422 3419 
Q 422 4038 858 4394 
Q 1294 4750 2059 4750 
Q 2388 4750 2728 4690 
Q 3069 4631 3425 4513 
z
" transform="scale(0.015625)"/>
       </defs>
       <use xlink:href="#DejaVuSans-4b"/>
       <use xlink:href="#DejaVuSans-53" x="65.576172"/>
      </g>
     </g>
    </g>
    <g id="xtick_18">
     <g id="line2d_35">
      <path d="M 447.499636 334.8 
L 447.499636 43.2 
" clip-path="url(#p3282c26a67)" style="fill: none; stroke: #cbcbcb"/>
     </g>
     <g id="line2d_36"/>
     <g id="text_18">
      <!-- KY -->
      <g transform="translate(445.977984 355.623698) rotate(-55) scale(0.12 -0.12)">
       <defs>
        <path id="DejaVuSans-59" d="M -13 4666 
L 666 4666 
L 1959 2747 
L 3244 4666 
L 3922 4666 
L 2272 2222 
L 2272 0 
L 1638 0 
L 1638 2222 
L -13 4666 
z
" transform="scale(0.015625)"/>
       </defs>
       <use xlink:href="#DejaVuSans-4b"/>
       <use xlink:href="#DejaVuSans-59" x="61.951172"/>
      </g>
     </g>
    </g>
    <g id="xtick_19">
     <g id="line2d_37">
      <path d="M 465.722182 334.8 
L 465.722182 43.2 
" clip-path="url(#p3282c26a67)" style="fill: none; stroke: #cbcbcb"/>
     </g>
     <g id="line2d_38"/>
     <g id="text_19">
      <!-- LA -->
      <g transform="translate(464.085456 355.952382) rotate(-55) scale(0.12 -0.12)">
       <use xlink:href="#DejaVuSans-4c"/>
       <use xlink:href="#DejaVuSans-41" x="57.962891"/>
      </g>
     </g>
    </g>
    <g id="xtick_20">
     <g id="line2d_39">
      <path d="M 483.944727 334.8 
L 483.944727 43.2 
" clip-path="url(#p3282c26a67)" style="fill: none; stroke: #cbcbcb"/>
     </g>
     <g id="line2d_40"/>
     <g id="text_20">
      <!-- MA -->
      <g transform="translate(481.333638 358.735451) rotate(-55) scale(0.12 -0.12)">
       <defs>
        <path id="DejaVuSans-4d" d="M 628 4666 
L 1569 4666 
L 2759 1491 
L 3956 4666 
L 4897 4666 
L 4897 0 
L 4281 0 
L 4281 4097 
L 3078 897 
L 2444 897 
L 1241 4097 
L 1241 0 
L 628 0 
L 628 4666 
z
" transform="scale(0.015625)"/>
       </defs>
       <use xlink:href="#DejaVuSans-4d"/>
       <use xlink:href="#DejaVuSans-41" x="86.279297"/>
      </g>
     </g>
    </g>
    <g id="xtick_21">
     <g id="line2d_41">
      <path d="M 502.167273 334.8 
L 502.167273 43.2 
" clip-path="url(#p3282c26a67)" style="fill: none; stroke: #cbcbcb"/>
     </g>
     <g id="line2d_42"/>
     <g id="text_21">
      <!-- MD -->
      <g transform="translate(499.260433 359.580202) rotate(-55) scale(0.12 -0.12)">
       <use xlink:href="#DejaVuSans-4d"/>
       <use xlink:href="#DejaVuSans-44" x="86.279297"/>
      </g>
     </g>
    </g>
    <g id="xtick_22">
     <g id="line2d_43">
      <path d="M 520.389818 334.8 
L 520.389818 43.2 
" clip-path="url(#p3282c26a67)" style="fill: none; stroke: #cbcbcb"/>
     </g>
     <g id="line2d_44"/>
     <g id="text_22">
      <!-- ME -->
      <g transform="translate(517.95833 358.222457) rotate(-55) scale(0.12 -0.12)">
       <use xlink:href="#DejaVuSans-4d"/>
       <use xlink:href="#DejaVuSans-45" x="86.279297"/>
      </g>
     </g>
    </g>
    <g id="xtick_23">
     <g id="line2d_45">
      <path d="M 538.612364 334.8 
L 538.612364 43.2 
" clip-path="url(#p3282c26a67)" style="fill: none; stroke: #cbcbcb"/>
     </g>
     <g id="line2d_46"/>
     <g id="text_23">
      <!-- MI -->
      <g transform="translate(537.340217 354.911035) rotate(-55) scale(0.12 -0.12)">
       <use xlink:href="#DejaVuSans-4d"/>
       <use xlink:href="#DejaVuSans-49" x="86.279297"/>
      </g>
     </g>
    </g>
    <g id="xtick_24">
     <g id="line2d_47">
      <path d="M 556.834909 334.8 
L 556.834909 43.2 
" clip-path="url(#p3282c26a67)" style="fill: none; stroke: #cbcbcb"/>
     </g>
     <g id="line2d_48"/>
     <g id="text_24">
      <!-- MN -->
      <g transform="translate(554.003352 359.365175) rotate(-55) scale(0.12 -0.12)">
       <use xlink:href="#DejaVuSans-4d"/>
       <use xlink:href="#DejaVuSans-4e" x="86.279297"/>
      </g>
     </g>
    </g>
    <g id="xtick_25">
     <g id="line2d_49">
      <path d="M 575.057455 334.8 
L 575.057455 43.2 
" clip-path="url(#p3282c26a67)" style="fill: none; stroke: #cbcbcb"/>
     </g>
     <g id="line2d_50"/>
     <g id="text_25">
      <!-- MO -->
      <g transform="translate(572.091465 359.749152) rotate(-55) scale(0.12 -0.12)">
       <use xlink:href="#DejaVuSans-4d"/>
       <use xlink:href="#DejaVuSans-4f" x="86.279297"/>
      </g>
     </g>
    </g>
    <g id="xtick_26">
     <g id="line2d_51">
      <path d="M 593.28 334.8 
L 593.28 43.2 
" clip-path="url(#p3282c26a67)" style="fill: none; stroke: #cbcbcb"/>
     </g>
     <g id="line2d_52"/>
     <g id="text_26">
      <!-- MS -->
      <g transform="translate(590.838295 358.25164) rotate(-55) scale(0.12 -0.12)">
       <use xlink:href="#DejaVuSans-4d"/>
       <use xlink:href="#DejaVuSans-53" x="86.279297"/>
      </g>
     </g>
    </g>
    <g id="xtick_27">
     <g id="line2d_53">
      <path d="M 611.502545 334.8 
L 611.502545 43.2 
" clip-path="url(#p3282c26a67)" style="fill: none; stroke: #cbcbcb"/>
     </g>
     <g id="line2d_54"/>
     <g id="text_27">
      <!-- MT -->
      <g transform="translate(609.143651 358.01511) rotate(-55) scale(0.12 -0.12)">
       <use xlink:href="#DejaVuSans-4d"/>
       <use xlink:href="#DejaVuSans-54" x="86.279297"/>
      </g>
     </g>
    </g>
    <g id="xtick_28">
     <g id="line2d_55">
      <path d="M 629.725091 334.8 
L 629.725091 43.2 
" clip-path="url(#p3282c26a67)" style="fill: none; stroke: #cbcbcb"/>
     </g>
     <g id="line2d_56"/>
     <g id="text_28">
      <!-- NC -->
      <g transform="translate(627.459761 357.747861) rotate(-55) scale(0.12 -0.12)">
       <use xlink:href="#DejaVuSans-4e"/>
       <use xlink:href="#DejaVuSans-43" x="74.804688"/>
      </g>
     </g>
    </g>
    <g id="xtick_29">
     <g id="line2d_57">
      <path d="M 647.947636 334.8 
L 647.947636 43.2 
" clip-path="url(#p3282c26a67)" style="fill: none; stroke: #cbcbcb"/>
     </g>
     <g id="line2d_58"/>
     <g id="text_29">
      <!-- ND -->
      <g transform="translate(645.435489 358.452844) rotate(-55) scale(0.12 -0.12)">
       <use xlink:href="#DejaVuSans-4e"/>
       <use xlink:href="#DejaVuSans-44" x="74.804688"/>
      </g>
     </g>
    </g>
    <g id="xtick_30">
     <g id="line2d_59">
      <path d="M 666.170182 334.8 
L 666.170182 43.2 
" clip-path="url(#p3282c26a67)" style="fill: none; stroke: #cbcbcb"/>
     </g>
     <g id="line2d_60"/>
     <g id="text_30">
      <!-- NE -->
      <g transform="translate(664.133386 357.095099) rotate(-55) scale(0.12 -0.12)">
       <use xlink:href="#DejaVuSans-4e"/>
       <use xlink:href="#DejaVuSans-45" x="74.804688"/>
      </g>
     </g>
    </g>
    <g id="xtick_31">
     <g id="line2d_61">
      <path d="M 684.392727 334.8 
L 684.392727 43.2 
" clip-path="url(#p3282c26a67)" style="fill: none; stroke: #cbcbcb"/>
     </g>
     <g id="line2d_62"/>
     <g id="text_31">
      <!-- NH -->
      <g transform="translate(681.942419 358.276214) rotate(-55) scale(0.12 -0.12)">
       <use xlink:href="#DejaVuSans-4e"/>
       <use xlink:href="#DejaVuSans-48" x="74.804688"/>
      </g>
     </g>
    </g>
    <g id="xtick_32">
     <g id="line2d_63">
      <path d="M 702.615273 334.8 
L 702.615273 43.2 
" clip-path="url(#p3282c26a67)" style="fill: none; stroke: #cbcbcb"/>
     </g>
     <g id="line2d_64"/>
     <g id="text_32">
      <!-- NJ -->
      <g transform="translate(701.737818 353.783677) rotate(-55) scale(0.12 -0.12)">
       <defs>
        <path id="DejaVuSans-4a" d="M 628 4666 
L 1259 4666 
L 1259 325 
Q 1259 -519 939 -900 
Q 619 -1281 -91 -1281 
L -331 -1281 
L -331 -750 
L -134 -750 
Q 284 -750 456 -515 
Q 628 -281 628 325 
L 628 4666 
z
" transform="scale(0.015625)"/>
       </defs>
       <use xlink:href="#DejaVuSans-4e"/>
       <use xlink:href="#DejaVuSans-4a" x="74.804688"/>
      </g>
     </g>
    </g>
    <g id="xtick_33">
     <g id="line2d_65">
      <path d="M 720.837818 334.8 
L 720.837818 43.2 
" clip-path="url(#p3282c26a67)" style="fill: none; stroke: #cbcbcb"/>
     </g>
     <g id="line2d_66"/>
     <g id="text_33">
      <!-- NM -->
      <g transform="translate(718.006261 359.365175) rotate(-55) scale(0.12 -0.12)">
       <use xlink:href="#DejaVuSans-4e"/>
       <use xlink:href="#DejaVuSans-4d" x="74.804688"/>
      </g>
     </g>
    </g>
    <g id="xtick_34">
     <g id="line2d_67">
      <path d="M 739.060364 334.8 
L 739.060364 43.2 
" clip-path="url(#p3282c26a67)" style="fill: none; stroke: #cbcbcb"/>
     </g>
     <g id="line2d_68"/>
     <g id="text_34">
      <!-- NV -->
      <g transform="translate(736.843967 357.608093) rotate(-55) scale(0.12 -0.12)">
       <defs>
        <path id="DejaVuSans-56" d="M 1831 0 
L 50 4666 
L 709 4666 
L 2188 738 
L 3669 4666 
L 4325 4666 
L 2547 0 
L 1831 0 
z
" transform="scale(0.015625)"/>
       </defs>
       <use xlink:href="#DejaVuSans-4e"/>
       <use xlink:href="#DejaVuSans-56" x="74.804688"/>
      </g>
     </g>
    </g>
    <g id="xtick_35">
     <g id="line2d_69">
      <path d="M 757.282909 334.8 
L 757.282909 43.2 
" clip-path="url(#p3282c26a67)" style="fill: none; stroke: #cbcbcb"/>
     </g>
     <g id="line2d_70"/>
     <g id="text_35">
      <!-- NY -->
      <g transform="translate(755.318707 356.887752) rotate(-55) scale(0.12 -0.12)">
       <use xlink:href="#DejaVuSans-4e"/>
       <use xlink:href="#DejaVuSans-59" x="74.804688"/>
      </g>
     </g>
    </g>
    <g id="xtick_36">
     <g id="line2d_71">
      <path d="M 775.505455 334.8 
L 775.505455 43.2 
" clip-path="url(#p3282c26a67)" style="fill: none; stroke: #cbcbcb"/>
     </g>
     <g id="line2d_72"/>
     <g id="text_36">
      <!-- OH -->
      <g transform="translate(772.920714 358.660192) rotate(-55) scale(0.12 -0.12)">
       <use xlink:href="#DejaVuSans-4f"/>
       <use xlink:href="#DejaVuSans-48" x="78.710938"/>
      </g>
     </g>
    </g>
    <g id="xtick_37">
     <g id="line2d_73">
      <path d="M 793.728 334.8 
L 793.728 43.2 
" clip-path="url(#p3282c26a67)" style="fill: none; stroke: #cbcbcb"/>
     </g>
     <g id="line2d_74"/>
     <g id="text_37">
      <!-- OK -->
      <g transform="translate(791.4745 357.714071) rotate(-55) scale(0.12 -0.12)">
       <use xlink:href="#DejaVuSans-4f"/>
       <use xlink:href="#DejaVuSans-4b" x="78.710938"/>
      </g>
     </g>
    </g>
    <g id="xtick_38">
     <g id="line2d_75">
      <path d="M 811.950545 334.8 
L 811.950545 43.2 
" clip-path="url(#p3282c26a67)" style="fill: none; stroke: #cbcbcb"/>
     </g>
     <g id="line2d_76"/>
     <g id="text_38">
      <!-- OR -->
      <g transform="translate(809.562613 358.098049) rotate(-55) scale(0.12 -0.12)">
       <use xlink:href="#DejaVuSans-4f"/>
       <use xlink:href="#DejaVuSans-52" x="78.710938"/>
      </g>
     </g>
    </g>
    <g id="xtick_39">
     <g id="line2d_77">
      <path d="M 830.173091 334.8 
L 830.173091 43.2 
" clip-path="url(#p3282c26a67)" style="fill: none; stroke: #cbcbcb"/>
     </g>
     <g id="line2d_78"/>
     <g id="text_39">
      <!-- PA -->
      <g transform="translate(828.675636 355.554582) rotate(-55) scale(0.12 -0.12)">
       <defs>
        <path id="DejaVuSans-50" d="M 1259 4147 
L 1259 2394 
L 2053 2394 
Q 2494 2394 2734 2622 
Q 2975 2850 2975 3272 
Q 2975 3691 2734 3919 
Q 2494 4147 2053 4147 
L 1259 4147 
z
M 628 4666 
L 2053 4666 
Q 2838 4666 3239 4311 
Q 3641 3956 3641 3272 
Q 3641 2581 3239 2228 
Q 2838 1875 2053 1875 
L 1259 1875 
L 1259 0 
L 628 0 
L 628 4666 
z
" transform="scale(0.015625)"/>
       </defs>
       <use xlink:href="#DejaVuSans-50"/>
       <use xlink:href="#DejaVuSans-41" x="53.927734"/>
      </g>
     </g>
    </g>
    <g id="xtick_40">
     <g id="line2d_79">
      <path d="M 848.395636 334.8 
L 848.395636 43.2 
" clip-path="url(#p3282c26a67)" style="fill: none; stroke: #cbcbcb"/>
     </g>
     <g id="line2d_80"/>
     <g id="text_40">
      <!-- RI -->
      <g transform="translate(847.701547 353.259932) rotate(-55) scale(0.12 -0.12)">
       <use xlink:href="#DejaVuSans-52"/>
       <use xlink:href="#DejaVuSans-49" x="69.482422"/>
      </g>
     </g>
    </g>
    <g id="xtick_41">
     <g id="line2d_81">
      <path d="M 866.618182 334.8 
L 866.618182 43.2 
" clip-path="url(#p3282c26a67)" style="fill: none; stroke: #cbcbcb"/>
     </g>
     <g id="line2d_82"/>
     <g id="text_41">
      <!-- SC -->
      <g transform="translate(864.742705 356.634326) rotate(-55) scale(0.12 -0.12)">
       <use xlink:href="#DejaVuSans-53"/>
       <use xlink:href="#DejaVuSans-43" x="63.476562"/>
      </g>
     </g>
    </g>
    <g id="xtick_42">
     <g id="line2d_83">
      <path d="M 884.840727 334.8 
L 884.840727 43.2 
" clip-path="url(#p3282c26a67)" style="fill: none; stroke: #cbcbcb"/>
     </g>
     <g id="line2d_84"/>
     <g id="text_42">
      <!-- SD -->
      <g transform="translate(882.718433 357.339309) rotate(-55) scale(0.12 -0.12)">
       <use xlink:href="#DejaVuSans-53"/>
       <use xlink:href="#DejaVuSans-44" x="63.476562"/>
      </g>
     </g>
    </g>
    <g id="xtick_43">
     <g id="line2d_85">
      <path d="M 903.063273 334.8 
L 903.063273 43.2 
" clip-path="url(#p3282c26a67)" style="fill: none; stroke: #cbcbcb"/>
     </g>
     <g id="line2d_86"/>
     <g id="text_43">
      <!-- TN -->
      <g transform="translate(901.09907 356.887752) rotate(-55) scale(0.12 -0.12)">
       <use xlink:href="#DejaVuSans-54"/>
       <use xlink:href="#DejaVuSans-4e" x="61.083984"/>
      </g>
     </g>
    </g>
    <g id="xtick_44">
     <g id="line2d_87">
      <path d="M 921.285818 334.8 
L 921.285818 43.2 
" clip-path="url(#p3282c26a67)" style="fill: none; stroke: #cbcbcb"/>
     </g>
     <g id="line2d_88"/>
     <g id="text_44">
      <!-- TX -->
      <g transform="translate(919.538858 356.267244) rotate(-55) scale(0.12 -0.12)">
       <defs>
        <path id="DejaVuSans-58" d="M 403 4666 
L 1081 4666 
L 2241 2931 
L 3406 4666 
L 4084 4666 
L 2584 2425 
L 4184 0 
L 3506 0 
L 2194 1984 
L 872 0 
L 191 0 
L 1856 2491 
L 403 4666 
z
" transform="scale(0.015625)"/>
       </defs>
       <use xlink:href="#DejaVuSans-54"/>
       <use xlink:href="#DejaVuSans-58" x="61.083984"/>
      </g>
     </g>
    </g>
    <g id="xtick_45">
     <g id="line2d_89">
      <path d="M 939.508364 334.8 
L 939.508364 43.2 
" clip-path="url(#p3282c26a67)" style="fill: none; stroke: #cbcbcb"/>
     </g>
     <g id="line2d_90"/>
     <g id="text_45">
      <!-- UT -->
      <g transform="translate(937.600085 356.728017) rotate(-55) scale(0.12 -0.12)">
       <defs>
        <path id="DejaVuSans-55" d="M 556 4666 
L 1191 4666 
L 1191 1831 
Q 1191 1081 1462 751 
Q 1734 422 2344 422 
Q 2950 422 3222 751 
Q 3494 1081 3494 1831 
L 3494 4666 
L 4128 4666 
L 4128 1753 
Q 4128 841 3676 375 
Q 3225 -91 2344 -91 
Q 1459 -91 1007 375 
Q 556 841 556 1753 
L 556 4666 
z
" transform="scale(0.015625)"/>
       </defs>
       <use xlink:href="#DejaVuSans-55"/>
       <use xlink:href="#DejaVuSans-54" x="73.193359"/>
      </g>
     </g>
    </g>
    <g id="xtick_46">
     <g id="line2d_91">
      <path d="M 957.730909 334.8 
L 957.730909 43.2 
" clip-path="url(#p3282c26a67)" style="fill: none; stroke: #cbcbcb"/>
     </g>
     <g id="line2d_92"/>
     <g id="text_46">
      <!-- VA -->
      <g transform="translate(955.954374 356.351719) rotate(-55) scale(0.12 -0.12)">
       <use xlink:href="#DejaVuSans-56"/>
       <use xlink:href="#DejaVuSans-41" x="62.033203"/>
      </g>
     </g>
    </g>
    <g id="xtick_47">
     <g id="line2d_93">
      <path d="M 975.953455 334.8 
L 975.953455 43.2 
" clip-path="url(#p3282c26a67)" style="fill: none; stroke: #cbcbcb"/>
     </g>
     <g id="line2d_94"/>
     <g id="text_47">
      <!-- VT -->
      <g transform="translate(974.209721 356.258029) rotate(-55) scale(0.12 -0.12)">
       <use xlink:href="#DejaVuSans-56"/>
       <use xlink:href="#DejaVuSans-54" x="68.408203"/>
      </g>
     </g>
    </g>
    <g id="xtick_48">
     <g id="line2d_95">
      <path d="M 994.176 334.8 
L 994.176 43.2 
" clip-path="url(#p3282c26a67)" style="fill: none; stroke: #cbcbcb"/>
     </g>
     <g id="line2d_96"/>
     <g id="text_48">
      <!-- WA -->
      <g transform="translate(991.320782 359.432755) rotate(-55) scale(0.12 -0.12)">
       <defs>
        <path id="DejaVuSans-57" d="M 213 4666 
L 850 4666 
L 1831 722 
L 2809 4666 
L 3519 4666 
L 4500 722 
L 5478 4666 
L 6119 4666 
L 4947 0 
L 4153 0 
L 3169 4050 
L 2175 0 
L 1381 0 
L 213 4666 
z
" transform="scale(0.015625)"/>
       </defs>
       <use xlink:href="#DejaVuSans-57"/>
       <use xlink:href="#DejaVuSans-41" x="93.376953"/>
      </g>
     </g>
    </g>
    <g id="xtick_49">
     <g id="line2d_97">
      <path d="M 1012.398545 334.8 
L 1012.398545 43.2 
" clip-path="url(#p3282c26a67)" style="fill: none; stroke: #cbcbcb"/>
     </g>
     <g id="line2d_98"/>
     <g id="text_49">
      <!-- WI -->
      <g transform="translate(1010.69299 356.148979) rotate(-55) scale(0.12 -0.12)">
       <use xlink:href="#DejaVuSans-57"/>
       <use xlink:href="#DejaVuSans-49" x="98.876953"/>
      </g>
     </g>
    </g>
    <g id="xtick_50">
     <g id="line2d_99">
      <path d="M 1030.621091 334.8 
L 1030.621091 43.2 
" clip-path="url(#p3282c26a67)" style="fill: none; stroke: #cbcbcb"/>
     </g>
     <g id="line2d_100"/>
     <g id="text_50">
      <!-- WV -->
      <g transform="translate(1027.576593 359.973395) rotate(-55) scale(0.12 -0.12)">
       <use xlink:href="#DejaVuSans-57"/>
       <use xlink:href="#DejaVuSans-56" x="98.876953"/>
      </g>
     </g>
    </g>
    <g id="xtick_51">
     <g id="line2d_101">
      <path d="M 1048.843636 334.8 
L 1048.843636 43.2 
" clip-path="url(#p3282c26a67)" style="fill: none; stroke: #cbcbcb"/>
     </g>
     <g id="line2d_102"/>
     <g id="text_51">
      <!-- WY -->
      <g transform="translate(1046.051333 359.253053) rotate(-55) scale(0.12 -0.12)">
       <use xlink:href="#DejaVuSans-57"/>
       <use xlink:href="#DejaVuSans-59" x="98.876953"/>
      </g>
     </g>
    </g>
    <g id="text_52">
     <!-- US State -->
     <g transform="translate(567.290625 374.522952) scale(0.12 -0.12)">
      <defs>
       <path id="DejaVuSans-20" transform="scale(0.015625)"/>
       <path id="DejaVuSans-74" d="M 1172 4494 
L 1172 3500 
L 2356 3500 
L 2356 3053 
L 1172 3053 
L 1172 1153 
Q 1172 725 1289 603 
Q 1406 481 1766 481 
L 2356 481 
L 2356 0 
L 1766 0 
Q 1100 0 847 248 
Q 594 497 594 1153 
L 594 3053 
L 172 3053 
L 172 3500 
L 594 3500 
L 594 4494 
L 1172 4494 
z
" transform="scale(0.015625)"/>
       <path id="DejaVuSans-61" d="M 2194 1759 
Q 1497 1759 1228 1600 
Q 959 1441 959 1056 
Q 959 750 1161 570 
Q 1363 391 1709 391 
Q 2188 391 2477 730 
Q 2766 1069 2766 1631 
L 2766 1759 
L 2194 1759 
z
M 3341 1997 
L 3341 0 
L 2766 0 
L 2766 531 
Q 2569 213 2275 61 
Q 1981 -91 1556 -91 
Q 1019 -91 701 211 
Q 384 513 384 1019 
Q 384 1609 779 1909 
Q 1175 2209 1959 2209 
L 2766 2209 
L 2766 2266 
Q 2766 2663 2505 2880 
Q 2244 3097 1772 3097 
Q 1472 3097 1187 3025 
Q 903 2953 641 2809 
L 641 3341 
Q 956 3463 1253 3523 
Q 1550 3584 1831 3584 
Q 2591 3584 2966 3190 
Q 3341 2797 3341 1997 
z
" transform="scale(0.015625)"/>
       <path id="DejaVuSans-65" d="M 3597 1894 
L 3597 1613 
L 953 1613 
Q 991 1019 1311 708 
Q 1631 397 2203 397 
Q 2534 397 2845 478 
Q 3156 559 3463 722 
L 3463 178 
Q 3153 47 2828 -22 
Q 2503 -91 2169 -91 
Q 1331 -91 842 396 
Q 353 884 353 1716 
Q 353 2575 817 3079 
Q 1281 3584 2069 3584 
Q 2775 3584 3186 3129 
Q 3597 2675 3597 1894 
z
M 3022 2063 
Q 3016 2534 2758 2815 
Q 2500 3097 2075 3097 
Q 1594 3097 1305 2825 
Q 1016 2553 972 2059 
L 3022 2063 
z
" transform="scale(0.015625)"/>
      </defs>
      <use xlink:href="#DejaVuSans-55"/>
      <use xlink:href="#DejaVuSans-53" x="73.193359"/>
      <use xlink:href="#DejaVuSans-20" x="136.669922"/>
      <use xlink:href="#DejaVuSans-53" x="168.457031"/>
      <use xlink:href="#DejaVuSans-74" x="231.933594"/>
      <use xlink:href="#DejaVuSans-61" x="271.142578"/>
      <use xlink:href="#DejaVuSans-74" x="332.421875"/>
      <use xlink:href="#DejaVuSans-65" x="371.630859"/>
     </g>
    </g>
   </g>
   <g id="matplotlib.axis_2">
    <g id="ytick_1">
     <g id="line2d_103">
      <path d="M 92.16 330.902932 
L 1094.4 330.902932 
" clip-path="url(#p3282c26a67)" style="fill: none; stroke: #cbcbcb"/>
     </g>
     <g id="line2d_104"/>
     <g id="text_53">
      <!-- 7.5 -->
      <g transform="translate(66.395625 336.221838) scale(0.14 -0.14)">
       <defs>
        <path id="DejaVuSans-37" d="M 525 4666 
L 3525 4666 
L 3525 4397 
L 1831 0 
L 1172 0 
L 2766 4134 
L 525 4134 
L 525 4666 
z
" transform="scale(0.015625)"/>
        <path id="DejaVuSans-2e" d="M 684 794 
L 1344 794 
L 1344 0 
L 684 0 
L 684 794 
z
" transform="scale(0.015625)"/>
        <path id="DejaVuSans-35" d="M 691 4666 
L 3169 4666 
L 3169 4134 
L 1269 4134 
L 1269 2991 
Q 1406 3038 1543 3061 
Q 1681 3084 1819 3084 
Q 2600 3084 3056 2656 
Q 3513 2228 3513 1497 
Q 3513 744 3044 326 
Q 2575 -91 1722 -91 
Q 1428 -91 1123 -41 
Q 819 9 494 109 
L 494 744 
Q 775 591 1075 516 
Q 1375 441 1709 441 
Q 2250 441 2565 725 
Q 2881 1009 2881 1497 
Q 2881 1984 2565 2268 
Q 2250 2553 1709 2553 
Q 1456 2553 1204 2497 
Q 953 2441 691 2322 
L 691 4666 
z
" transform="scale(0.015625)"/>
       </defs>
       <use xlink:href="#DejaVuSans-37"/>
       <use xlink:href="#DejaVuSans-2e" x="63.623047"/>
       <use xlink:href="#DejaVuSans-35" x="95.410156"/>
      </g>
     </g>
    </g>
    <g id="ytick_2">
     <g id="line2d_105">
      <path d="M 92.16 295.507143 
L 1094.4 295.507143 
" clip-path="url(#p3282c26a67)" style="fill: none; stroke: #cbcbcb"/>
     </g>
     <g id="line2d_106"/>
     <g id="text_54">
      <!-- 10.0 -->
      <g transform="translate(57.488125 300.826049) scale(0.14 -0.14)">
       <defs>
        <path id="DejaVuSans-31" d="M 794 531 
L 1825 531 
L 1825 4091 
L 703 3866 
L 703 4441 
L 1819 4666 
L 2450 4666 
L 2450 531 
L 3481 531 
L 3481 0 
L 794 0 
L 794 531 
z
" transform="scale(0.015625)"/>
        <path id="DejaVuSans-30" d="M 2034 4250 
Q 1547 4250 1301 3770 
Q 1056 3291 1056 2328 
Q 1056 1369 1301 889 
Q 1547 409 2034 409 
Q 2525 409 2770 889 
Q 3016 1369 3016 2328 
Q 3016 3291 2770 3770 
Q 2525 4250 2034 4250 
z
M 2034 4750 
Q 2819 4750 3233 4129 
Q 3647 3509 3647 2328 
Q 3647 1150 3233 529 
Q 2819 -91 2034 -91 
Q 1250 -91 836 529 
Q 422 1150 422 2328 
Q 422 3509 836 4129 
Q 1250 4750 2034 4750 
z
" transform="scale(0.015625)"/>
       </defs>
       <use xlink:href="#DejaVuSans-31"/>
       <use xlink:href="#DejaVuSans-30" x="63.623047"/>
       <use xlink:href="#DejaVuSans-2e" x="127.246094"/>
       <use xlink:href="#DejaVuSans-30" x="159.033203"/>
      </g>
     </g>
    </g>
    <g id="ytick_3">
     <g id="line2d_107">
      <path d="M 92.16 260.111354 
L 1094.4 260.111354 
" clip-path="url(#p3282c26a67)" style="fill: none; stroke: #cbcbcb"/>
     </g>
     <g id="line2d_108"/>
     <g id="text_55">
      <!-- 12.5 -->
      <g transform="translate(57.488125 265.430261) scale(0.14 -0.14)">
       <defs>
        <path id="DejaVuSans-32" d="M 1228 531 
L 3431 531 
L 3431 0 
L 469 0 
L 469 531 
Q 828 903 1448 1529 
Q 2069 2156 2228 2338 
Q 2531 2678 2651 2914 
Q 2772 3150 2772 3378 
Q 2772 3750 2511 3984 
Q 2250 4219 1831 4219 
Q 1534 4219 1204 4116 
Q 875 4013 500 3803 
L 500 4441 
Q 881 4594 1212 4672 
Q 1544 4750 1819 4750 
Q 2544 4750 2975 4387 
Q 3406 4025 3406 3419 
Q 3406 3131 3298 2873 
Q 3191 2616 2906 2266 
Q 2828 2175 2409 1742 
Q 1991 1309 1228 531 
z
" transform="scale(0.015625)"/>
       </defs>
       <use xlink:href="#DejaVuSans-31"/>
       <use xlink:href="#DejaVuSans-32" x="63.623047"/>
       <use xlink:href="#DejaVuSans-2e" x="127.246094"/>
       <use xlink:href="#DejaVuSans-35" x="159.033203"/>
      </g>
     </g>
    </g>
    <g id="ytick_4">
     <g id="line2d_109">
      <path d="M 92.16 224.715566 
L 1094.4 224.715566 
" clip-path="url(#p3282c26a67)" style="fill: none; stroke: #cbcbcb"/>
     </g>
     <g id="line2d_110"/>
     <g id="text_56">
      <!-- 15.0 -->
      <g transform="translate(57.488125 230.034472) scale(0.14 -0.14)">
       <use xlink:href="#DejaVuSans-31"/>
       <use xlink:href="#DejaVuSans-35" x="63.623047"/>
       <use xlink:href="#DejaVuSans-2e" x="127.246094"/>
       <use xlink:href="#DejaVuSans-30" x="159.033203"/>
      </g>
     </g>
    </g>
    <g id="ytick_5">
     <g id="line2d_111">
      <path d="M 92.16 189.319777 
L 1094.4 189.319777 
" clip-path="url(#p3282c26a67)" style="fill: none; stroke: #cbcbcb"/>
     </g>
     <g id="line2d_112"/>
     <g id="text_57">
      <!-- 17.5 -->
      <g transform="translate(57.488125 194.638683) scale(0.14 -0.14)">
       <use xlink:href="#DejaVuSans-31"/>
       <use xlink:href="#DejaVuSans-37" x="63.623047"/>
       <use xlink:href="#DejaVuSans-2e" x="127.246094"/>
       <use xlink:href="#DejaVuSans-35" x="159.033203"/>
      </g>
     </g>
    </g>
    <g id="ytick_6">
     <g id="line2d_113">
      <path d="M 92.16 153.923988 
L 1094.4 153.923988 
" clip-path="url(#p3282c26a67)" style="fill: none; stroke: #cbcbcb"/>
     </g>
     <g id="line2d_114"/>
     <g id="text_58">
      <!-- 20.0 -->
      <g transform="translate(57.488125 159.242894) scale(0.14 -0.14)">
       <use xlink:href="#DejaVuSans-32"/>
       <use xlink:href="#DejaVuSans-30" x="63.623047"/>
       <use xlink:href="#DejaVuSans-2e" x="127.246094"/>
       <use xlink:href="#DejaVuSans-30" x="159.033203"/>
      </g>
     </g>
    </g>
    <g id="ytick_7">
     <g id="line2d_115">
      <path d="M 92.16 118.528199 
L 1094.4 118.528199 
" clip-path="url(#p3282c26a67)" style="fill: none; stroke: #cbcbcb"/>
     </g>
     <g id="line2d_116"/>
     <g id="text_59">
      <!-- 22.5 -->
      <g transform="translate(57.488125 123.847105) scale(0.14 -0.14)">
       <use xlink:href="#DejaVuSans-32"/>
       <use xlink:href="#DejaVuSans-32" x="63.623047"/>
       <use xlink:href="#DejaVuSans-2e" x="127.246094"/>
       <use xlink:href="#DejaVuSans-35" x="159.033203"/>
      </g>
     </g>
    </g>
    <g id="ytick_8">
     <g id="line2d_117">
      <path d="M 92.16 83.13241 
L 1094.4 83.13241 
" clip-path="url(#p3282c26a67)" style="fill: none; stroke: #cbcbcb"/>
     </g>
     <g id="line2d_118"/>
     <g id="text_60">
      <!-- 25.0 -->
      <g transform="translate(57.488125 88.451316) scale(0.14 -0.14)">
       <use xlink:href="#DejaVuSans-32"/>
       <use xlink:href="#DejaVuSans-35" x="63.623047"/>
       <use xlink:href="#DejaVuSans-2e" x="127.246094"/>
       <use xlink:href="#DejaVuSans-30" x="159.033203"/>
      </g>
     </g>
    </g>
    <g id="ytick_9">
     <g id="line2d_119">
      <path d="M 92.16 47.736621 
L 1094.4 47.736621 
" clip-path="url(#p3282c26a67)" style="fill: none; stroke: #cbcbcb"/>
     </g>
     <g id="line2d_120"/>
     <g id="text_61">
      <!-- 27.5 -->
      <g transform="translate(57.488125 53.055528) scale(0.14 -0.14)">
       <use xlink:href="#DejaVuSans-32"/>
       <use xlink:href="#DejaVuSans-37" x="63.623047"/>
       <use xlink:href="#DejaVuSans-2e" x="127.246094"/>
       <use xlink:href="#DejaVuSans-35" x="159.033203"/>
      </g>
     </g>
    </g>
    <g id="text_62">
     <!-- Poverty -->
     <g style="fill: #d3253b" transform="translate(49.99425 220.758563) rotate(-90) scale(0.168 -0.168)">
      <defs>
       <path id="DejaVuSans-6f" d="M 1959 3097 
Q 1497 3097 1228 2736 
Q 959 2375 959 1747 
Q 959 1119 1226 758 
Q 1494 397 1959 397 
Q 2419 397 2687 759 
Q 2956 1122 2956 1747 
Q 2956 2369 2687 2733 
Q 2419 3097 1959 3097 
z
M 1959 3584 
Q 2709 3584 3137 3096 
Q 3566 2609 3566 1747 
Q 3566 888 3137 398 
Q 2709 -91 1959 -91 
Q 1206 -91 779 398 
Q 353 888 353 1747 
Q 353 2609 779 3096 
Q 1206 3584 1959 3584 
z
" transform="scale(0.015625)"/>
       <path id="DejaVuSans-76" d="M 191 3500 
L 800 3500 
L 1894 563 
L 2988 3500 
L 3597 3500 
L 2284 0 
L 1503 0 
L 191 3500 
z
" transform="scale(0.015625)"/>
       <path id="DejaVuSans-72" d="M 2631 2963 
Q 2534 3019 2420 3045 
Q 2306 3072 2169 3072 
Q 1681 3072 1420 2755 
Q 1159 2438 1159 1844 
L 1159 0 
L 581 0 
L 581 3500 
L 1159 3500 
L 1159 2956 
Q 1341 3275 1631 3429 
Q 1922 3584 2338 3584 
Q 2397 3584 2469 3576 
Q 2541 3569 2628 3553 
L 2631 2963 
z
" transform="scale(0.015625)"/>
       <path id="DejaVuSans-79" d="M 2059 -325 
Q 1816 -950 1584 -1140 
Q 1353 -1331 966 -1331 
L 506 -1331 
L 506 -850 
L 844 -850 
Q 1081 -850 1212 -737 
Q 1344 -625 1503 -206 
L 1606 56 
L 191 3500 
L 800 3500 
L 1894 763 
L 2988 3500 
L 3597 3500 
L 2059 -325 
z
" transform="scale(0.015625)"/>
      </defs>
      <use xlink:href="#DejaVuSans-50"/>
      <use xlink:href="#DejaVuSans-6f" x="56.677734"/>
      <use xlink:href="#DejaVuSans-76" x="117.859375"/>
      <use xlink:href="#DejaVuSans-65" x="177.039062"/>
      <use xlink:href="#DejaVuSans-72" x="238.5625"/>
      <use xlink:href="#DejaVuSans-74" x="279.675781"/>
      <use xlink:href="#DejaVuSans-79" x="318.884766"/>
     </g>
    </g>
   </g>
   <g id="line2d_121">
    <path d="M 137.716364 172.632906 
L 155.938909 145.262003 
L 174.161455 111.969837 
L 192.384 79.336977 
L 210.606545 197.979419 
L 228.829091 250.373648 
L 247.051636 307.71869 
L 265.274182 182.240619 
L 283.496727 259.320695 
L 301.719273 189.197935 
L 319.941818 102.053068 
L 338.164364 247.359494 
L 356.386909 263.912188 
L 374.609455 181.161593 
L 392.832 241.006943 
L 411.054545 217.63849 
L 429.277091 228.693378 
L 447.499636 152.791323 
L 465.722182 121.476355 
L 483.944727 301.930184 
L 502.167273 291.650506 
L 520.389818 197.901894 
L 538.612364 183.64622 
L 556.834909 242.473825 
L 575.057455 154.905339 
L 593.28 56.454545 
L 611.502545 204.56421 
L 629.725091 157.88027 
L 647.947636 265.322744 
L 666.170182 254.201478 
L 684.392727 257.848943 
L 702.615273 321.545455 
L 720.837818 118.419535 
L 739.060364 261.937885 
L 757.282909 272.302185 
L 775.505455 227.169674 
L 793.728 146.195034 
L 811.950545 204.386928 
L 830.173091 260.292954 
L 848.395636 290.276432 
L 866.618182 124.112868 
L 884.840727 214.163818 
L 903.063273 155.520914 
L 921.285818 161.056634 
L 939.508364 271.089494 
L 957.730909 230.579448 
L 975.953455 241.904463 
L 994.176 227.179158 
L 1012.398545 255.032947 
L 1030.621091 138.601544 
L 1048.843636 308.763213 
" clip-path="url(#p3282c26a67)" style="fill: none; stroke-dasharray: 11.1,4.8; stroke-dashoffset: 0; stroke: #d3253b; stroke-width: 3"/>
   </g>
   <g id="patch_3">
    <path d="M 92.16 334.8 
L 92.16 43.2 
" style="fill: none; stroke: #f0f0f0; stroke-width: 3; stroke-linejoin: miter; stroke-linecap: square"/>
   </g>
   <g id="patch_4">
    <path d="M 1094.4 334.8 
L 1094.4 43.2 
" style="fill: none; stroke: #f0f0f0; stroke-width: 3; stroke-linejoin: miter; stroke-linecap: square"/>
   </g>
   <g id="patch_5">
    <path d="M 92.16 334.8 
L 1094.4 334.8 
" style="fill: none; stroke: #f0f0f0; stroke-width: 3; stroke-linejoin: miter; stroke-linecap: square"/>
   </g>
   <g id="patch_6">
    <path d="M 92.16 43.2 
L 1094.4 43.2 
" style="fill: none; stroke: #f0f0f0; stroke-width: 3; stroke-linejoin: miter; stroke-linecap: square"/>
   </g>
  </g>
  <g id="axes_2">
   <g id="matplotlib.axis_3">
    <g id="ytick_10">
     <g id="line2d_122">
      <path d="M 92.16 308.054865 
L 1094.4 308.054865 
" clip-path="url(#p3282c26a67)" style="fill: none; stroke: #cbcbcb"/>
     </g>
     <g id="line2d_123"/>
     <g id="text_63">
      <!-- 75.0 -->
      <g transform="translate(1097.9 313.373771) scale(0.14 -0.14)">
       <use xlink:href="#DejaVuSans-37"/>
       <use xlink:href="#DejaVuSans-35" x="63.623047"/>
       <use xlink:href="#DejaVuSans-2e" x="127.246094"/>
       <use xlink:href="#DejaVuSans-30" x="159.033203"/>
      </g>
     </g>
    </g>
    <g id="ytick_11">
     <g id="line2d_124">
      <path d="M 92.16 271.116646 
L 1094.4 271.116646 
" clip-path="url(#p3282c26a67)" style="fill: none; stroke: #cbcbcb"/>
     </g>
     <g id="line2d_125"/>
     <g id="text_64">
      <!-- 77.5 -->
      <g transform="translate(1097.9 276.435553) scale(0.14 -0.14)">
       <use xlink:href="#DejaVuSans-37"/>
       <use xlink:href="#DejaVuSans-37" x="63.623047"/>
       <use xlink:href="#DejaVuSans-2e" x="127.246094"/>
       <use xlink:href="#DejaVuSans-35" x="159.033203"/>
      </g>
     </g>
    </g>
    <g id="ytick_12">
     <g id="line2d_126">
      <path d="M 92.16 234.178428 
L 1094.4 234.178428 
" clip-path="url(#p3282c26a67)" style="fill: none; stroke: #cbcbcb"/>
     </g>
     <g id="line2d_127"/>
     <g id="text_65">
      <!-- 80.0 -->
      <g transform="translate(1097.9 239.497334) scale(0.14 -0.14)">
       <defs>
        <path id="DejaVuSans-38" d="M 2034 2216 
Q 1584 2216 1326 1975 
Q 1069 1734 1069 1313 
Q 1069 891 1326 650 
Q 1584 409 2034 409 
Q 2484 409 2743 651 
Q 3003 894 3003 1313 
Q 3003 1734 2745 1975 
Q 2488 2216 2034 2216 
z
M 1403 2484 
Q 997 2584 770 2862 
Q 544 3141 544 3541 
Q 544 4100 942 4425 
Q 1341 4750 2034 4750 
Q 2731 4750 3128 4425 
Q 3525 4100 3525 3541 
Q 3525 3141 3298 2862 
Q 3072 2584 2669 2484 
Q 3125 2378 3379 2068 
Q 3634 1759 3634 1313 
Q 3634 634 3220 271 
Q 2806 -91 2034 -91 
Q 1263 -91 848 271 
Q 434 634 434 1313 
Q 434 1759 690 2068 
Q 947 2378 1403 2484 
z
M 1172 3481 
Q 1172 3119 1398 2916 
Q 1625 2713 2034 2713 
Q 2441 2713 2670 2916 
Q 2900 3119 2900 3481 
Q 2900 3844 2670 4047 
Q 2441 4250 2034 4250 
Q 1625 4250 1398 4047 
Q 1172 3844 1172 3481 
z
" transform="scale(0.015625)"/>
       </defs>
       <use xlink:href="#DejaVuSans-38"/>
       <use xlink:href="#DejaVuSans-30" x="63.623047"/>
       <use xlink:href="#DejaVuSans-2e" x="127.246094"/>
       <use xlink:href="#DejaVuSans-30" x="159.033203"/>
      </g>
     </g>
    </g>
    <g id="ytick_13">
     <g id="line2d_128">
      <path d="M 92.16 197.24021 
L 1094.4 197.24021 
" clip-path="url(#p3282c26a67)" style="fill: none; stroke: #cbcbcb"/>
     </g>
     <g id="line2d_129"/>
     <g id="text_66">
      <!-- 82.5 -->
      <g transform="translate(1097.9 202.559116) scale(0.14 -0.14)">
       <use xlink:href="#DejaVuSans-38"/>
       <use xlink:href="#DejaVuSans-32" x="63.623047"/>
       <use xlink:href="#DejaVuSans-2e" x="127.246094"/>
       <use xlink:href="#DejaVuSans-35" x="159.033203"/>
      </g>
     </g>
    </g>
    <g id="ytick_14">
     <g id="line2d_130">
      <path d="M 92.16 160.301992 
L 1094.4 160.301992 
" clip-path="url(#p3282c26a67)" style="fill: none; stroke: #cbcbcb"/>
     </g>
     <g id="line2d_131"/>
     <g id="text_67">
      <!-- 85.0 -->
      <g transform="translate(1097.9 165.620898) scale(0.14 -0.14)">
       <use xlink:href="#DejaVuSans-38"/>
       <use xlink:href="#DejaVuSans-35" x="63.623047"/>
       <use xlink:href="#DejaVuSans-2e" x="127.246094"/>
       <use xlink:href="#DejaVuSans-30" x="159.033203"/>
      </g>
     </g>
    </g>
    <g id="ytick_15">
     <g id="line2d_132">
      <path d="M 92.16 123.363773 
L 1094.4 123.363773 
" clip-path="url(#p3282c26a67)" style="fill: none; stroke: #cbcbcb"/>
     </g>
     <g id="line2d_133"/>
     <g id="text_68">
      <!-- 87.5 -->
      <g transform="translate(1097.9 128.68268) scale(0.14 -0.14)">
       <use xlink:href="#DejaVuSans-38"/>
       <use xlink:href="#DejaVuSans-37" x="63.623047"/>
       <use xlink:href="#DejaVuSans-2e" x="127.246094"/>
       <use xlink:href="#DejaVuSans-35" x="159.033203"/>
      </g>
     </g>
    </g>
    <g id="ytick_16">
     <g id="line2d_134">
      <path d="M 92.16 86.425555 
L 1094.4 86.425555 
" clip-path="url(#p3282c26a67)" style="fill: none; stroke: #cbcbcb"/>
     </g>
     <g id="line2d_135"/>
     <g id="text_69">
      <!-- 90.0 -->
      <g transform="translate(1097.9 91.744461) scale(0.14 -0.14)">
       <defs>
        <path id="DejaVuSans-39" d="M 703 97 
L 703 672 
Q 941 559 1184 500 
Q 1428 441 1663 441 
Q 2288 441 2617 861 
Q 2947 1281 2994 2138 
Q 2813 1869 2534 1725 
Q 2256 1581 1919 1581 
Q 1219 1581 811 2004 
Q 403 2428 403 3163 
Q 403 3881 828 4315 
Q 1253 4750 1959 4750 
Q 2769 4750 3195 4129 
Q 3622 3509 3622 2328 
Q 3622 1225 3098 567 
Q 2575 -91 1691 -91 
Q 1453 -91 1209 -44 
Q 966 3 703 97 
z
M 1959 2075 
Q 2384 2075 2632 2365 
Q 2881 2656 2881 3163 
Q 2881 3666 2632 3958 
Q 2384 4250 1959 4250 
Q 1534 4250 1286 3958 
Q 1038 3666 1038 3163 
Q 1038 2656 1286 2365 
Q 1534 2075 1959 2075 
z
" transform="scale(0.015625)"/>
       </defs>
       <use xlink:href="#DejaVuSans-39"/>
       <use xlink:href="#DejaVuSans-30" x="63.623047"/>
       <use xlink:href="#DejaVuSans-2e" x="127.246094"/>
       <use xlink:href="#DejaVuSans-30" x="159.033203"/>
      </g>
     </g>
    </g>
    <g id="ytick_17">
     <g id="line2d_136">
      <path d="M 92.16 49.487337 
L 1094.4 49.487337 
" clip-path="url(#p3282c26a67)" style="fill: none; stroke: #cbcbcb"/>
     </g>
     <g id="line2d_137"/>
     <g id="text_70">
      <!-- 92.5 -->
      <g transform="translate(1097.9 54.806243) scale(0.14 -0.14)">
       <use xlink:href="#DejaVuSans-39"/>
       <use xlink:href="#DejaVuSans-32" x="63.623047"/>
       <use xlink:href="#DejaVuSans-2e" x="127.246094"/>
       <use xlink:href="#DejaVuSans-35" x="159.033203"/>
      </g>
     </g>
    </g>
    <g id="text_71">
     <!-- Graduation -->
     <g style="fill: #006c9c" transform="translate(1145.83725 236.00325) rotate(-90) scale(0.168 -0.168)">
      <defs>
       <path id="DejaVuSans-64" d="M 2906 2969 
L 2906 4863 
L 3481 4863 
L 3481 0 
L 2906 0 
L 2906 525 
Q 2725 213 2448 61 
Q 2172 -91 1784 -91 
Q 1150 -91 751 415 
Q 353 922 353 1747 
Q 353 2572 751 3078 
Q 1150 3584 1784 3584 
Q 2172 3584 2448 3432 
Q 2725 3281 2906 2969 
z
M 947 1747 
Q 947 1113 1208 752 
Q 1469 391 1925 391 
Q 2381 391 2643 752 
Q 2906 1113 2906 1747 
Q 2906 2381 2643 2742 
Q 2381 3103 1925 3103 
Q 1469 3103 1208 2742 
Q 947 2381 947 1747 
z
" transform="scale(0.015625)"/>
       <path id="DejaVuSans-75" d="M 544 1381 
L 544 3500 
L 1119 3500 
L 1119 1403 
Q 1119 906 1312 657 
Q 1506 409 1894 409 
Q 2359 409 2629 706 
Q 2900 1003 2900 1516 
L 2900 3500 
L 3475 3500 
L 3475 0 
L 2900 0 
L 2900 538 
Q 2691 219 2414 64 
Q 2138 -91 1772 -91 
Q 1169 -91 856 284 
Q 544 659 544 1381 
z
M 1991 3584 
L 1991 3584 
z
" transform="scale(0.015625)"/>
       <path id="DejaVuSans-69" d="M 603 3500 
L 1178 3500 
L 1178 0 
L 603 0 
L 603 3500 
z
M 603 4863 
L 1178 4863 
L 1178 4134 
L 603 4134 
L 603 4863 
z
" transform="scale(0.015625)"/>
       <path id="DejaVuSans-6e" d="M 3513 2113 
L 3513 0 
L 2938 0 
L 2938 2094 
Q 2938 2591 2744 2837 
Q 2550 3084 2163 3084 
Q 1697 3084 1428 2787 
Q 1159 2491 1159 1978 
L 1159 0 
L 581 0 
L 581 3500 
L 1159 3500 
L 1159 2956 
Q 1366 3272 1645 3428 
Q 1925 3584 2291 3584 
Q 2894 3584 3203 3211 
Q 3513 2838 3513 2113 
z
" transform="scale(0.015625)"/>
      </defs>
      <use xlink:href="#DejaVuSans-47"/>
      <use xlink:href="#DejaVuSans-72" x="77.490234"/>
      <use xlink:href="#DejaVuSans-61" x="118.603516"/>
      <use xlink:href="#DejaVuSans-64" x="179.882812"/>
      <use xlink:href="#DejaVuSans-75" x="243.359375"/>
      <use xlink:href="#DejaVuSans-61" x="306.738281"/>
      <use xlink:href="#DejaVuSans-74" x="368.017578"/>
      <use xlink:href="#DejaVuSans-69" x="407.226562"/>
      <use xlink:href="#DejaVuSans-6f" x="435.009766"/>
      <use xlink:href="#DejaVuSans-6e" x="496.191406"/>
     </g>
    </g>
   </g>
   <g id="line2d_138">
    <path d="M 137.716364 232.730034 
L 155.938909 231.763868 
L 174.161455 234.92402 
L 192.384 245.730016 
L 210.606545 221.994155 
L 228.829091 102.291246 
L 247.051636 62.908223 
L 265.274182 96.768256 
L 283.496727 108.300656 
L 301.719273 153.540447 
L 319.941818 254.354825 
L 338.164364 61.816384 
L 356.386909 91.371172 
L 374.609455 168.906806 
L 392.832 111.700153 
L 411.054545 140.809476 
L 429.277091 116.45105 
L 447.499636 201.41286 
L 465.722182 247.145769 
L 483.944727 56.454545 
L 502.167273 114.778133 
L 520.389818 65.285529 
L 538.612364 98.132622 
L 556.834909 94.322071 
L 575.057455 192.887722 
L 593.28 256.774006 
L 611.502545 86.534852 
L 629.725091 187.831211 
L 647.947636 121.941514 
L 666.170182 93.482028 
L 684.392727 75.915299 
L 702.615273 78.734272 
L 720.837818 249.370625 
L 739.060364 130.074686 
L 757.282909 78.477043 
L 775.505455 113.033233 
L 793.728 197.781109 
L 811.950545 121.85881 
L 830.173091 101.60167 
L 848.395636 103.786518 
L 866.618182 224.637921 
L 884.840727 142.824829 
L 903.063273 210.077529 
L 921.285818 321.545455 
L 939.508364 91.676465 
L 957.730909 162.071039 
L 975.953455 86.767463 
L 994.176 129.68392 
L 1012.398545 82.525412 
L 1030.621091 202.533776 
L 1048.843636 175.461147 
" clip-path="url(#p3282c26a67)" style="fill: none; stroke: #006c9c; stroke-width: 3"/>
    <defs>
     <path id="m89a40c0fef" d="M 0 3 
C 0.795609 3 1.55874 2.683901 2.12132 2.12132 
C 2.683901 1.55874 3 0.795609 3 0 
C 3 -0.795609 2.683901 -1.55874 2.12132 -2.12132 
C 1.55874 -2.683901 0.795609 -3 0 -3 
C -0.795609 -3 -1.55874 -2.683901 -2.12132 -2.12132 
C -2.683901 -1.55874 -3 -0.795609 -3 0 
C -3 0.795609 -2.683901 1.55874 -2.12132 2.12132 
C -1.55874 2.683901 -0.795609 3 0 3 
z
" style="stroke: #006c9c"/>
    </defs>
    <g clip-path="url(#p3282c26a67)">
     <use xlink:href="#m89a40c0fef" x="137.716364" y="232.730034" style="fill: #006c9c; stroke: #006c9c"/>
     <use xlink:href="#m89a40c0fef" x="155.938909" y="231.763868" style="fill: #006c9c; stroke: #006c9c"/>
     <use xlink:href="#m89a40c0fef" x="174.161455" y="234.92402" style="fill: #006c9c; stroke: #006c9c"/>
     <use xlink:href="#m89a40c0fef" x="192.384" y="245.730016" style="fill: #006c9c; stroke: #006c9c"/>
     <use xlink:href="#m89a40c0fef" x="210.606545" y="221.994155" style="fill: #006c9c; stroke: #006c9c"/>
     <use xlink:href="#m89a40c0fef" x="228.829091" y="102.291246" style="fill: #006c9c; stroke: #006c9c"/>
     <use xlink:href="#m89a40c0fef" x="247.051636" y="62.908223" style="fill: #006c9c; stroke: #006c9c"/>
     <use xlink:href="#m89a40c0fef" x="265.274182" y="96.768256" style="fill: #006c9c; stroke: #006c9c"/>
     <use xlink:href="#m89a40c0fef" x="283.496727" y="108.300656" style="fill: #006c9c; stroke: #006c9c"/>
     <use xlink:href="#m89a40c0fef" x="301.719273" y="153.540447" style="fill: #006c9c; stroke: #006c9c"/>
     <use xlink:href="#m89a40c0fef" x="319.941818" y="254.354825" style="fill: #006c9c; stroke: #006c9c"/>
     <use xlink:href="#m89a40c0fef" x="338.164364" y="61.816384" style="fill: #006c9c; stroke: #006c9c"/>
     <use xlink:href="#m89a40c0fef" x="356.386909" y="91.371172" style="fill: #006c9c; stroke: #006c9c"/>
     <use xlink:href="#m89a40c0fef" x="374.609455" y="168.906806" style="fill: #006c9c; stroke: #006c9c"/>
     <use xlink:href="#m89a40c0fef" x="392.832" y="111.700153" style="fill: #006c9c; stroke: #006c9c"/>
     <use xlink:href="#m89a40c0fef" x="411.054545" y="140.809476" style="fill: #006c9c; stroke: #006c9c"/>
     <use xlink:href="#m89a40c0fef" x="429.277091" y="116.45105" style="fill: #006c9c; stroke: #006c9c"/>
     <use xlink:href="#m89a40c0fef" x="447.499636" y="201.41286" style="fill: #006c9c; stroke: #006c9c"/>
     <use xlink:href="#m89a40c0fef" x="465.722182" y="247.145769" style="fill: #006c9c; stroke: #006c9c"/>
     <use xlink:href="#m89a40c0fef" x="483.944727" y="56.454545" style="fill: #006c9c; stroke: #006c9c"/>
     <use xlink:href="#m89a40c0fef" x="502.167273" y="114.778133" style="fill: #006c9c; stroke: #006c9c"/>
     <use xlink:href="#m89a40c0fef" x="520.389818" y="65.285529" style="fill: #006c9c; stroke: #006c9c"/>
     <use xlink:href="#m89a40c0fef" x="538.612364" y="98.132622" style="fill: #006c9c; stroke: #006c9c"/>
     <use xlink:href="#m89a40c0fef" x="556.834909" y="94.322071" style="fill: #006c9c; stroke: #006c9c"/>
     <use xlink:href="#m89a40c0fef" x="575.057455" y="192.887722" style="fill: #006c9c; stroke: #006c9c"/>
     <use xlink:href="#m89a40c0fef" x="593.28" y="256.774006" style="fill: #006c9c; stroke: #006c9c"/>
     <use xlink:href="#m89a40c0fef" x="611.502545" y="86.534852" style="fill: #006c9c; stroke: #006c9c"/>
     <use xlink:href="#m89a40c0fef" x="629.725091" y="187.831211" style="fill: #006c9c; stroke: #006c9c"/>
     <use xlink:href="#m89a40c0fef" x="647.947636" y="121.941514" style="fill: #006c9c; stroke: #006c9c"/>
     <use xlink:href="#m89a40c0fef" x="666.170182" y="93.482028" style="fill: #006c9c; stroke: #006c9c"/>
     <use xlink:href="#m89a40c0fef" x="684.392727" y="75.915299" style="fill: #006c9c; stroke: #006c9c"/>
     <use xlink:href="#m89a40c0fef" x="702.615273" y="78.734272" style="fill: #006c9c; stroke: #006c9c"/>
     <use xlink:href="#m89a40c0fef" x="720.837818" y="249.370625" style="fill: #006c9c; stroke: #006c9c"/>
     <use xlink:href="#m89a40c0fef" x="739.060364" y="130.074686" style="fill: #006c9c; stroke: #006c9c"/>
     <use xlink:href="#m89a40c0fef" x="757.282909" y="78.477043" style="fill: #006c9c; stroke: #006c9c"/>
     <use xlink:href="#m89a40c0fef" x="775.505455" y="113.033233" style="fill: #006c9c; stroke: #006c9c"/>
     <use xlink:href="#m89a40c0fef" x="793.728" y="197.781109" style="fill: #006c9c; stroke: #006c9c"/>
     <use xlink:href="#m89a40c0fef" x="811.950545" y="121.85881" style="fill: #006c9c; stroke: #006c9c"/>
     <use xlink:href="#m89a40c0fef" x="830.173091" y="101.60167" style="fill: #006c9c; stroke: #006c9c"/>
     <use xlink:href="#m89a40c0fef" x="848.395636" y="103.786518" style="fill: #006c9c; stroke: #006c9c"/>
     <use xlink:href="#m89a40c0fef" x="866.618182" y="224.637921" style="fill: #006c9c; stroke: #006c9c"/>
     <use xlink:href="#m89a40c0fef" x="884.840727" y="142.824829" style="fill: #006c9c; stroke: #006c9c"/>
     <use xlink:href="#m89a40c0fef" x="903.063273" y="210.077529" style="fill: #006c9c; stroke: #006c9c"/>
     <use xlink:href="#m89a40c0fef" x="921.285818" y="321.545455" style="fill: #006c9c; stroke: #006c9c"/>
     <use xlink:href="#m89a40c0fef" x="939.508364" y="91.676465" style="fill: #006c9c; stroke: #006c9c"/>
     <use xlink:href="#m89a40c0fef" x="957.730909" y="162.071039" style="fill: #006c9c; stroke: #006c9c"/>
     <use xlink:href="#m89a40c0fef" x="975.953455" y="86.767463" style="fill: #006c9c; stroke: #006c9c"/>
     <use xlink:href="#m89a40c0fef" x="994.176" y="129.68392" style="fill: #006c9c; stroke: #006c9c"/>
     <use xlink:href="#m89a40c0fef" x="1012.398545" y="82.525412" style="fill: #006c9c; stroke: #006c9c"/>
     <use xlink:href="#m89a40c0fef" x="1030.621091" y="202.533776" style="fill: #006c9c; stroke: #006c9c"/>
     <use xlink:href="#m89a40c0fef" x="1048.843636" y="175.461147" style="fill: #006c9c; stroke: #006c9c"/>
    </g>
   </g>
   <g id="patch_7">
    <path d="M 92.16 334.8 
L 92.16 43.2 
" style="fill: none; stroke: #f0f0f0; stroke-width: 3; stroke-linejoin: miter; stroke-linecap: square"/>
   </g>
   <g id="patch_8">
    <path d="M 1094.4 334.8 
L 1094.4 43.2 
" style="fill: none; stroke: #f0f0f0; stroke-width: 3; stroke-linejoin: miter; stroke-linecap: square"/>
   </g>
   <g id="patch_9">
    <path d="M 92.16 334.8 
L 1094.4 334.8 
" style="fill: none; stroke: #f0f0f0; stroke-width: 3; stroke-linejoin: miter; stroke-linecap: square"/>
   </g>
   <g id="patch_10">
    <path d="M 92.16 43.2 
L 1094.4 43.2 
" style="fill: none; stroke: #f0f0f0; stroke-width: 3; stroke-linejoin: miter; stroke-linecap: square"/>
   </g>
  </g>
  <g id="text_72">
   <!-- Poverty Rates and High School Graduation Rates -->
   <g transform="translate(405.13 17.837812) scale(0.14 -0.14)">
    <defs>
     <path id="DejaVuSans-73" d="M 2834 3397 
L 2834 2853 
Q 2591 2978 2328 3040 
Q 2066 3103 1784 3103 
Q 1356 3103 1142 2972 
Q 928 2841 928 2578 
Q 928 2378 1081 2264 
Q 1234 2150 1697 2047 
L 1894 2003 
Q 2506 1872 2764 1633 
Q 3022 1394 3022 966 
Q 3022 478 2636 193 
Q 2250 -91 1575 -91 
Q 1294 -91 989 -36 
Q 684 19 347 128 
L 347 722 
Q 666 556 975 473 
Q 1284 391 1588 391 
Q 1994 391 2212 530 
Q 2431 669 2431 922 
Q 2431 1156 2273 1281 
Q 2116 1406 1581 1522 
L 1381 1569 
Q 847 1681 609 1914 
Q 372 2147 372 2553 
Q 372 3047 722 3315 
Q 1072 3584 1716 3584 
Q 2034 3584 2315 3537 
Q 2597 3491 2834 3397 
z
" transform="scale(0.015625)"/>
     <path id="DejaVuSans-67" d="M 2906 1791 
Q 2906 2416 2648 2759 
Q 2391 3103 1925 3103 
Q 1463 3103 1205 2759 
Q 947 2416 947 1791 
Q 947 1169 1205 825 
Q 1463 481 1925 481 
Q 2391 481 2648 825 
Q 2906 1169 2906 1791 
z
M 3481 434 
Q 3481 -459 3084 -895 
Q 2688 -1331 1869 -1331 
Q 1566 -1331 1297 -1286 
Q 1028 -1241 775 -1147 
L 775 -588 
Q 1028 -725 1275 -790 
Q 1522 -856 1778 -856 
Q 2344 -856 2625 -561 
Q 2906 -266 2906 331 
L 2906 616 
Q 2728 306 2450 153 
Q 2172 0 1784 0 
Q 1141 0 747 490 
Q 353 981 353 1791 
Q 353 2603 747 3093 
Q 1141 3584 1784 3584 
Q 2172 3584 2450 3431 
Q 2728 3278 2906 2969 
L 2906 3500 
L 3481 3500 
L 3481 434 
z
" transform="scale(0.015625)"/>
     <path id="DejaVuSans-68" d="M 3513 2113 
L 3513 0 
L 2938 0 
L 2938 2094 
Q 2938 2591 2744 2837 
Q 2550 3084 2163 3084 
Q 1697 3084 1428 2787 
Q 1159 2491 1159 1978 
L 1159 0 
L 581 0 
L 581 4863 
L 1159 4863 
L 1159 2956 
Q 1366 3272 1645 3428 
Q 1925 3584 2291 3584 
Q 2894 3584 3203 3211 
Q 3513 2838 3513 2113 
z
" transform="scale(0.015625)"/>
     <path id="DejaVuSans-63" d="M 3122 3366 
L 3122 2828 
Q 2878 2963 2633 3030 
Q 2388 3097 2138 3097 
Q 1578 3097 1268 2742 
Q 959 2388 959 1747 
Q 959 1106 1268 751 
Q 1578 397 2138 397 
Q 2388 397 2633 464 
Q 2878 531 3122 666 
L 3122 134 
Q 2881 22 2623 -34 
Q 2366 -91 2075 -91 
Q 1284 -91 818 406 
Q 353 903 353 1747 
Q 353 2603 823 3093 
Q 1294 3584 2113 3584 
Q 2378 3584 2631 3529 
Q 2884 3475 3122 3366 
z
" transform="scale(0.015625)"/>
     <path id="DejaVuSans-6c" d="M 603 4863 
L 1178 4863 
L 1178 0 
L 603 0 
L 603 4863 
z
" transform="scale(0.015625)"/>
    </defs>
    <use xlink:href="#DejaVuSans-50"/>
    <use xlink:href="#DejaVuSans-6f" x="56.677734"/>
    <use xlink:href="#DejaVuSans-76" x="117.859375"/>
    <use xlink:href="#DejaVuSans-65" x="177.039062"/>
    <use xlink:href="#DejaVuSans-72" x="238.5625"/>
    <use xlink:href="#DejaVuSans-74" x="279.675781"/>
    <use xlink:href="#DejaVuSans-79" x="318.884766"/>
    <use xlink:href="#DejaVuSans-20" x="378.064453"/>
    <use xlink:href="#DejaVuSans-52" x="409.851562"/>
    <use xlink:href="#DejaVuSans-61" x="477.083984"/>
    <use xlink:href="#DejaVuSans-74" x="538.363281"/>
    <use xlink:href="#DejaVuSans-65" x="577.572266"/>
    <use xlink:href="#DejaVuSans-73" x="639.095703"/>
    <use xlink:href="#DejaVuSans-20" x="691.195312"/>
    <use xlink:href="#DejaVuSans-61" x="722.982422"/>
    <use xlink:href="#DejaVuSans-6e" x="784.261719"/>
    <use xlink:href="#DejaVuSans-64" x="847.640625"/>
    <use xlink:href="#DejaVuSans-20" x="911.117188"/>
    <use xlink:href="#DejaVuSans-48" x="942.904297"/>
    <use xlink:href="#DejaVuSans-69" x="1018.099609"/>
    <use xlink:href="#DejaVuSans-67" x="1045.882812"/>
    <use xlink:href="#DejaVuSans-68" x="1109.359375"/>
    <use xlink:href="#DejaVuSans-20" x="1172.738281"/>
    <use xlink:href="#DejaVuSans-53" x="1204.525391"/>
    <use xlink:href="#DejaVuSans-63" x="1268.001953"/>
    <use xlink:href="#DejaVuSans-68" x="1322.982422"/>
    <use xlink:href="#DejaVuSans-6f" x="1386.361328"/>
    <use xlink:href="#DejaVuSans-6f" x="1447.542969"/>
    <use xlink:href="#DejaVuSans-6c" x="1508.724609"/>
    <use xlink:href="#DejaVuSans-20" x="1536.507812"/>
    <use xlink:href="#DejaVuSans-47" x="1568.294922"/>
    <use xlink:href="#DejaVuSans-72" x="1645.785156"/>
    <use xlink:href="#DejaVuSans-61" x="1686.898438"/>
    <use xlink:href="#DejaVuSans-64" x="1748.177734"/>
    <use xlink:href="#DejaVuSans-75" x="1811.654297"/>
    <use xlink:href="#DejaVuSans-61" x="1875.033203"/>
    <use xlink:href="#DejaVuSans-74" x="1936.3125"/>
    <use xlink:href="#DejaVuSans-69" x="1975.521484"/>
    <use xlink:href="#DejaVuSans-6f" x="2003.304688"/>
    <use xlink:href="#DejaVuSans-6e" x="2064.486328"/>
    <use xlink:href="#DejaVuSans-20" x="2127.865234"/>
    <use xlink:href="#DejaVuSans-52" x="2159.652344"/>
    <use xlink:href="#DejaVuSans-61" x="2226.884766"/>
    <use xlink:href="#DejaVuSans-74" x="2288.164062"/>
    <use xlink:href="#DejaVuSans-65" x="2327.373047"/>
    <use xlink:href="#DejaVuSans-73" x="2388.896484"/>
   </g>
  </g>
 </g>
 <defs>
  <clipPath id="p3282c26a67">
   <rect x="92.16" y="43.2" width="1002.24" height="291.6"/>
  </clipPath>
 </defs>
</svg>
